<svg width="67" height="68" viewBox="0 0 67 68" fill="none" xmlns="http://www.w3.org/2000/svg">
<path fill-rule="evenodd" clip-rule="evenodd" d="M32.1261 6.58438C40.4592 8.8277 48.5302 8.86881 57.0227 9.30118C58.6813 9.38538 60.0895 8.11178 60.1756 6.45827C60.2617 4.80375 58.9821 3.39347 57.3236 3.30827C49.2706 2.8985 41.5984 2.92016 33.6829 0.790976C32.082 0.359948 30.4309 1.30918 30.0059 2.90829C29.5709 4.50618 30.5251 6.15435 32.1261 6.58438Z" fill="#F59F81"/>
<path fill-rule="evenodd" clip-rule="evenodd" d="M15.5079 23.7361C27.9798 37.9936 44.1285 51.5231 60.5236 61.091C61.9558 61.9255 63.7968 61.4425 64.6282 60.0123C65.4596 58.5821 64.9796 56.7432 63.5474 55.9088C47.6955 46.6567 32.0772 33.572 20.0251 19.7858C18.932 18.5396 17.0343 18.4132 15.7902 19.5033C14.5461 20.5934 14.4148 22.49 15.5079 23.7361Z" fill="#F59F81"/>
<path fill-rule="evenodd" clip-rule="evenodd" d="M1.47381 26.9726C-0.914653 39.7115 2.3969 52.9679 7.23203 64.7042C7.86877 66.2354 9.62321 66.9659 11.1473 66.336C12.6814 65.7053 13.41 63.9497 12.7832 62.4187C8.37533 51.73 5.19739 39.6808 7.37101 28.0785C7.67659 26.4508 6.60059 24.8819 4.97685 24.5774C3.35312 24.2719 1.77937 25.3459 1.47381 26.9726Z" fill="#F59F81"/>
</svg>
