<svg xmlns="http://www.w3.org/2000/svg" xmlns:xlink="http://www.w3.org/1999/xlink">
  <defs>
    <symbol id="ecology-dark" viewBox="0 0 64 64" fill="none">
      <g>
        <path d="M43.9771 28.7542C48.2376 33.4856 51.2228 37.7645 55.1633 44.5576C55.8811 45.7919 55.0719 47.2776 53.5176 47.5519C48.7679 48.3839 39.3645 49.8513 31.9999 49.8559C24.6308 49.8559 15.2319 48.3839 10.4822 47.5519C8.92791 47.2776 8.11877 45.7919 8.83649 44.5576C12.7771 37.7599 15.7622 33.4856 20.0228 28.7542C21.3165 27.3142 20.1736 25.1565 18.0799 25.1565H15.7393C14.0708 25.1565 12.8913 23.7348 13.5313 22.3908C17.3073 14.5005 24.2925 7.55191 31.9999 3.71191C39.7073 7.55191 46.6925 14.5005 50.4685 22.3953C51.1085 23.7393 49.9336 25.1611 48.2605 25.1611H45.9245C43.8216 25.1611 42.6788 27.3188 43.9771 28.7588V28.7542Z" fill="#F59F81" fill-opacity="0.16" stroke="#F59F81" stroke-width="6" stroke-linecap="round" stroke-linejoin="round"/>
        <path d="M31.9999 49.8559H32.0136M31.9862 49.8559H31.9999H31.9862ZM31.9999 49.8559C39.3645 49.8559 48.7679 48.3839 53.5176 47.5519C55.0719 47.2776 55.8811 45.7919 55.1633 44.5576C51.2228 37.7645 48.2376 33.4856 43.9771 28.7588C42.6833 27.3188 43.8262 25.1611 45.9245 25.1611H48.2605C49.9291 25.1611 51.1085 23.7393 50.4685 22.3953C46.6925 14.5005 39.7073 7.55191 31.9999 3.71191C24.2925 7.55191 17.3073 14.5005 13.5313 22.3953C12.8913 23.7393 14.0708 25.1611 15.7393 25.1611H18.0799C20.1736 25.1611 21.3165 27.3188 20.0228 28.7588C15.7622 33.4856 12.7771 37.7645 8.83649 44.5576C8.11877 45.7919 8.92791 47.2776 10.4822 47.5519C15.2319 48.3839 24.6308 49.8513 31.9999 49.8559V49.8559Z" stroke="#F59F81" stroke-width="6" stroke-linecap="round" stroke-linejoin="round"/>
        <path d="M32.2559 49.856V60.288" stroke="#F59F81" stroke-width="6" stroke-linecap="round" stroke-linejoin="round"/>
      </g>
    </symbol>
    <symbol id="ecology-light" viewBox="0 0 64 64" fill="none">
      <g>
        <path d="M43.9771 28.7542C48.2376 33.4856 51.2228 37.7645 55.1633 44.5576C55.8811 45.7919 55.0719 47.2776 53.5176 47.5519C48.7679 48.3839 39.3645 49.8513 31.9999 49.8559C24.6308 49.8559 15.2319 48.3839 10.4822 47.5519C8.92791 47.2776 8.11877 45.7919 8.83649 44.5576C12.7771 37.7599 15.7622 33.4856 20.0228 28.7542C21.3165 27.3142 20.1736 25.1565 18.0799 25.1565H15.7393C14.0708 25.1565 12.8913 23.7348 13.5313 22.3908C17.3073 14.5005 24.2925 7.55191 31.9999 3.71191C39.7073 7.55191 46.6925 14.5005 50.4685 22.3953C51.1085 23.7393 49.9336 25.1611 48.2605 25.1611H45.9245C43.8216 25.1611 42.6788 27.3188 43.9771 28.7588V28.7542Z" fill="#D7E0FF"/>
        <path d="M31.9999 49.8559H32.0136M31.9862 49.8559H31.9999H31.9862ZM31.9999 49.8559C39.3645 49.8559 48.7679 48.3839 53.5176 47.5519C55.0719 47.2776 55.8811 45.7919 55.1633 44.5576C51.2228 37.7645 48.2376 33.4856 43.9771 28.7588C42.6833 27.3188 43.8262 25.1611 45.9245 25.1611H48.2605C49.9291 25.1611 51.1085 23.7393 50.4685 22.3953C46.6925 14.5005 39.7073 7.55191 31.9999 3.71191C24.2925 7.55191 17.3073 14.5005 13.5313 22.3953C12.8913 23.7393 14.0708 25.1611 15.7393 25.1611H18.0799C20.1736 25.1611 21.3165 27.3188 20.0228 28.7588C15.7622 33.4856 12.7771 37.7645 8.83649 44.5576C8.11877 45.7919 8.92791 47.2776 10.4822 47.5519C15.2319 48.3839 24.6308 49.8513 31.9999 49.8559V49.8559Z" stroke="#4C4FB6" stroke-width="6" stroke-linecap="round" stroke-linejoin="round"/>
        <path d="M32.2559 49.856V60.288" stroke="#4C4FB6" stroke-width="6" stroke-linecap="round" stroke-linejoin="round"/>
      </g>
    </symbol>
    <symbol id="institutions-dark" viewBox="0 0 64 64" fill="none">
      <g>
        <path d="M30.3089 4.1232C20.9604 8.05006 11.7626 13.5083 5.2255 20.5026C3.94092 21.8786 4.97407 23.9998 6.8575 23.9998H57.1432C59.0266 23.9998 60.0598 21.8786 58.7752 20.5026C52.2381 13.5083 43.0404 8.05006 33.6918 4.1232C33.1563 3.89815 32.5812 3.78223 32.0004 3.78223C31.4195 3.78223 30.8444 3.89815 30.3089 4.1232Z" fill="#F59F81" fill-opacity="0.16" stroke="#F59F81" stroke-width="6" stroke-linecap="round" stroke-linejoin="round"/>
        <path d="M13.7147 46.8569C8.40274 46.8569 5.8336 50.9712 4.94674 56.0226C4.50788 58.5049 6.61988 60.5712 9.14331 60.5712H54.8576C57.381 60.5712 59.493 58.5049 59.0542 56.0226C58.1673 50.9758 55.6027 46.8569 50.2862 46.8569H13.7147Z" fill="#F59F81" fill-opacity="0.16" stroke="#F59F81" stroke-width="6" stroke-linecap="round" stroke-linejoin="round"/>
        <path d="M13.7148 46.8571V24" stroke="#F59F81" stroke-width="6" stroke-linecap="round" stroke-linejoin="round"/>
        <path d="M32 46.8571V24" stroke="#F59F81" stroke-width="6" stroke-linecap="round" stroke-linejoin="round"/>
        <path d="M50.2861 46.8571V24" stroke="#F59F81" stroke-width="6" stroke-linecap="round" stroke-linejoin="round"/>
      </g>
    </symbol>
    <symbol id="institutions-light" viewBox="0 0 64 64" fill="none">
      <g>
        <path d="M30.3089 4.1232C20.9604 8.05006 11.7626 13.5083 5.2255 20.5026C3.94092 21.8786 4.97407 23.9998 6.8575 23.9998H57.1432C59.0266 23.9998 60.0598 21.8786 58.7752 20.5026C52.2381 13.5083 43.0404 8.05006 33.6918 4.1232C33.1563 3.89815 32.5812 3.78223 32.0004 3.78223C31.4195 3.78223 30.8444 3.89815 30.3089 4.1232Z" fill="#D7E0FF" stroke="#4C4FB6" stroke-width="6" stroke-linecap="round" stroke-linejoin="round"/>
        <path d="M13.7147 46.8569C8.40274 46.8569 5.8336 50.9712 4.94674 56.0226C4.50788 58.5049 6.61988 60.5712 9.14331 60.5712H54.8576C57.381 60.5712 59.493 58.5049 59.0542 56.0226C58.1673 50.9758 55.6027 46.8569 50.2862 46.8569H13.7147Z" fill="#D7E0FF" stroke="#4C4FB6" stroke-width="6" stroke-linecap="round" stroke-linejoin="round"/>
        <path d="M13.7148 46.8571V24" stroke="#4C4FB6" stroke-width="6" stroke-linecap="round" stroke-linejoin="round"/>
        <path d="M32 46.8571V24" stroke="#4C4FB6" stroke-width="6" stroke-linecap="round" stroke-linejoin="round"/>
        <path d="M50.2861 46.8571V24" stroke="#4C4FB6" stroke-width="6" stroke-linecap="round" stroke-linejoin="round"/>
      </g>
    </symbol>
    <symbol id="foreign-affairs-light" viewBox="0 0 64 64" fill="none">
      <g>
        <path d="M31.9996 60.3228C47.6416 60.3228 60.3223 47.6421 60.3223 32.0001C60.3223 16.3578 47.6416 3.67725 31.9996 3.67725C16.3573 3.67725 3.67676 16.3578 3.67676 32.0001C3.67676 47.6421 16.3573 60.3228 31.9996 60.3228Z" fill="#D7E0FF" stroke="#4C4FB6" stroke-width="6" stroke-linecap="round" stroke-linejoin="round"/>
        <path d="M13.4806 42.8935C15.503 42.8935 17.4425 42.0901 18.8725 40.66C20.3026 39.23 21.106 37.2905 21.106 35.2681V28.732C21.106 26.7097 21.9094 24.7701 23.3394 23.3401C24.7695 21.9101 26.709 21.1067 28.7314 21.1067C30.7537 21.1067 32.6933 20.3033 34.1233 18.8733C35.5534 17.4432 36.3567 15.5037 36.3567 13.4813V4.01033C34.9364 3.79103 33.4813 3.67725 31.9996 3.67725C16.3573 3.67725 3.67676 16.3578 3.67676 32.0001C3.67676 35.8602 4.449 39.54 5.84745 42.8935H13.4806Z" fill="white" stroke="#4C4FB6" stroke-width="6" stroke-linecap="round" stroke-linejoin="round"/>
        <path d="M60.3191 31.5628C58.1381 30.4317 55.7198 29.8348 53.2631 29.8213H43.9818C41.9595 29.8213 40.0199 30.6247 38.5899 32.0547C37.1598 33.4847 36.3564 35.4243 36.3564 37.4467C36.3564 39.4691 37.1598 41.4086 38.5899 42.8386C40.0199 44.2687 41.9595 45.072 43.9818 45.072C45.4264 45.072 46.8119 45.6459 47.8332 46.6674C48.8549 47.6886 49.4286 49.0742 49.4286 50.5188V54.3094H49.4506C56.0279 49.1574 60.2698 41.1593 60.3219 32.1684V31.8315C60.3214 31.7418 60.3205 31.6523 60.3191 31.5628Z" fill="white" stroke="#4C4FB6" stroke-width="6" stroke-linecap="round" stroke-linejoin="round"/>
      </g>
    </symbol>
    <symbol id="foreign-affairs-dark" viewBox="0 0 64 64" fill="none">
      <g>
        <path d="M31.9996 60.3228C47.6416 60.3228 60.3223 47.6421 60.3223 32.0001C60.3223 16.3578 47.6416 3.67725 31.9996 3.67725C16.3573 3.67725 3.67676 16.3578 3.67676 32.0001C3.67676 47.6421 16.3573 60.3228 31.9996 60.3228Z" fill="#F59F81" fill-opacity="0.16" stroke="#F59F81" stroke-width="6" stroke-linecap="round" stroke-linejoin="round"/>
        <path d="M13.4806 42.8935C15.503 42.8935 17.4425 42.0901 18.8725 40.66C20.3026 39.23 21.106 37.2905 21.106 35.2681V28.732C21.106 26.7097 21.9094 24.7701 23.3394 23.3401C24.7695 21.9101 26.709 21.1067 28.7314 21.1067C30.7537 21.1067 32.6933 20.3033 34.1233 18.8733C35.5534 17.4432 36.3567 15.5037 36.3567 13.4813V4.01033C34.9364 3.79103 33.4813 3.67725 31.9996 3.67725C16.3573 3.67725 3.67676 16.3578 3.67676 32.0001C3.67676 35.8602 4.449 39.54 5.84745 42.8935H13.4806Z" fill="#F59F81" fill-opacity="0.25" stroke="#F59F81" stroke-width="6" stroke-linecap="round" stroke-linejoin="round"/>
        <path d="M60.3191 31.5628C58.1381 30.4317 55.7198 29.8348 53.2631 29.8213H43.9818C41.9595 29.8213 40.0199 30.6247 38.5899 32.0547C37.1598 33.4847 36.3564 35.4243 36.3564 37.4467C36.3564 39.4691 37.1598 41.4086 38.5899 42.8386C40.0199 44.2687 41.9595 45.072 43.9818 45.072C45.4264 45.072 46.8119 45.6459 47.8332 46.6674C48.8549 47.6886 49.4286 49.0742 49.4286 50.5188V54.3094H49.4506C56.0279 49.1574 60.2698 41.1593 60.3219 32.1684V31.8315C60.3214 31.7418 60.3205 31.6523 60.3191 31.5628Z" fill="#F59F81" fill-opacity="0.25" stroke="#F59F81" stroke-width="6" stroke-linecap="round" stroke-linejoin="round"/>
      </g>
    </symbol>
    <symbol id="health-dark" viewBox="0 0 64 64" fill="none">
      <g>
        <path d="M31.9999 14.8569C24.9004 14.8569 17.4764 14.8569 11.2821 16.0226C9.9019 16.286 8.62985 16.9503 7.62494 17.9324C6.62003 18.9146 5.9268 20.1711 5.63186 21.5449C4.57129 26.3906 4.57129 30.8569 4.57129 37.7141C4.57129 44.5712 4.57129 49.0329 5.63186 53.8832C5.9268 55.2571 6.62003 56.5136 7.62494 57.4957C8.62985 58.4779 9.9019 59.1421 11.2821 59.4055C17.4764 60.5712 24.905 60.5712 31.9999 60.5712C39.0993 60.5712 46.5233 60.5712 52.7176 59.4055C54.0978 59.1421 55.3699 58.4779 56.3748 57.4957C57.3797 56.5136 58.0729 55.2571 58.3679 53.8832C59.4284 49.0375 59.4284 44.5712 59.4284 37.7141C59.4284 30.8569 59.4284 26.3952 58.3679 21.5449C58.0729 20.1711 57.3797 18.9146 56.3748 17.9324C55.3699 16.9503 54.0978 16.286 52.7176 16.0226C46.5233 14.8569 39.0947 14.8569 31.9999 14.8569Z" fill="#F59F81" fill-opacity="0.16" stroke="#F59F81" stroke-width="6" stroke-linecap="round" stroke-linejoin="round"/>
        <path d="M20.5713 14.857V12.5713C20.5713 10.1465 21.5346 7.82097 23.2492 6.10635C24.9638 4.39173 27.2893 3.42847 29.7141 3.42847H34.2856C36.7104 3.42847 39.0359 4.39173 40.7506 6.10635C42.4652 7.82097 43.4284 10.1465 43.4284 12.5713V14.857" stroke="#F59F81" stroke-width="6" stroke-linejoin="round"/>
        <path d="M32 28.5713V46.857" stroke="#F59F81" stroke-width="6" stroke-linecap="round" stroke-linejoin="round"/>
        <path d="M22.8574 37.7141H41.1431" stroke="#F59F81" stroke-width="6" stroke-linecap="round" stroke-linejoin="round"/>
      </g>
    </symbol>
    <symbol id="health-light" viewBox="0 0 64 64" fill="none">
      <g>
        <path d="M32.4286 15C25.3291 15 17.9051 15 11.7109 16.1657C10.3306 16.4291 9.05856 17.0934 8.05365 18.0755C7.04874 19.0577 6.35551 20.3141 6.06057 21.688C5 26.5337 5 31 5 37.8571C5 44.7143 5 49.176 6.06057 54.0263C6.35551 55.4001 7.04874 56.6566 8.05365 57.6388C9.05856 58.6209 10.3306 59.2852 11.7109 59.5486C17.9051 60.7143 25.3337 60.7143 32.4286 60.7143C39.528 60.7143 46.952 60.7143 53.1463 59.5486C54.5265 59.2852 55.7986 58.6209 56.8035 57.6388C57.8084 56.6566 58.5016 55.4001 58.7966 54.0263C59.8571 49.1806 59.8571 44.7143 59.8571 37.8571C59.8571 31 59.8571 26.5383 58.7966 21.688C58.5016 20.3141 57.8084 19.0577 56.8035 18.0755C55.7986 17.0934 54.5265 16.4291 53.1463 16.1657C46.952 15 39.5234 15 32.4286 15Z" fill="#D7E0FF" stroke="#4C4FB6" stroke-width="6" stroke-linecap="round" stroke-linejoin="round"/>
        <path d="M20.5713 14.857V12.5713C20.5713 10.1465 21.5346 7.82097 23.2492 6.10635C24.9638 4.39173 27.2893 3.42847 29.7141 3.42847H34.2856C36.7104 3.42847 39.0359 4.39173 40.7506 6.10635C42.4652 7.82097 43.4284 10.1465 43.4284 12.5713V14.857" stroke="#4C4FB6" stroke-width="6" stroke-linejoin="round"/>
        <path d="M32 28.5713V46.857" stroke="#4C4FB6" stroke-width="6" stroke-linecap="round" stroke-linejoin="round"/>
        <path d="M22.8574 37.7141H41.1431" stroke="#4C4FB6" stroke-width="6" stroke-linecap="round" stroke-linejoin="round"/>
      </g>
    </symbol>
    <symbol id="society-dark" viewBox="0 0 64 64" fill="none">
      <g>
        <path d="M32 31.7717C33.2901 31.7997 34.5728 31.5698 35.7729 31.0955C36.973 30.6211 38.0662 29.9119 38.9885 29.0094C39.9109 28.1069 40.6437 27.0293 41.1439 25.8399C41.6442 24.6504 41.9019 23.373 41.9019 22.0825C41.9019 20.7921 41.6442 19.5147 41.1439 18.3252C40.6437 17.1357 39.9109 16.0581 38.9885 15.1557C38.0662 14.2532 36.973 13.5439 35.7729 13.0696C34.5728 12.5953 33.2901 12.3654 32 12.3934C29.4297 12.3934 26.9646 13.4145 25.1471 15.232C23.3297 17.0494 22.3086 19.5145 22.3086 22.0848C22.3086 24.6552 23.3297 27.1202 25.1471 28.9377C26.9646 30.7552 29.4297 31.7763 32 31.7763V31.7717Z" fill="#F59F81" fill-opacity="0.16" stroke="#F59F81" stroke-width="6" stroke-linecap="round" stroke-linejoin="round"/>
        <path d="M47.8221 46.7339C46.9453 43.2008 44.9111 40.0628 42.0437 37.8201C39.1763 35.5773 35.6407 34.3589 32.0004 34.3589C28.3601 34.3589 24.8246 35.5773 21.9572 37.8201C19.0898 40.0628 17.0556 43.2008 16.1787 46.7339C16.997 47.0082 17.8519 47.2002 18.7296 47.2962C23.0496 47.7762 27.4793 48.1922 32.0004 48.1922C36.5216 48.1922 40.9513 47.7807 45.2713 47.2962C46.149 47.2002 47.0084 47.0082 47.8221 46.7339Z" fill="#F59F81" fill-opacity="0.16" stroke="#F59F81" stroke-width="6" stroke-linecap="round" stroke-linejoin="round"/>
        <path d="M45.7461 4.31104C47.4375 4.49389 49.1198 4.68589 50.7838 4.88246C55.1724 5.38532 58.6695 8.88703 59.1632 13.2756C59.3461 14.9259 59.5335 16.5945 59.7118 18.2813" stroke="#F59F81" stroke-width="6" stroke-linecap="round"/>
        <path d="M45.7461 59.6895C47.4375 59.5067 49.1198 59.3147 50.7838 59.1181C52.9212 58.866 54.9111 57.9004 56.4317 56.3773C57.9523 54.8542 58.9147 52.8628 59.1632 50.7249C59.3461 49.0747 59.5335 47.4061 59.7118 45.7192" stroke="#F59F81" stroke-width="6" stroke-linecap="round"/>
        <path d="M18.2538 4.31104C16.5624 4.49389 14.8801 4.68589 13.2161 4.88246C11.0784 5.13373 9.08806 6.09913 7.56731 7.62236C6.04657 9.14559 5.08443 11.1375 4.83666 13.2756C4.6538 14.9259 4.46637 16.5945 4.28809 18.2813" stroke="#F59F81" stroke-width="6" stroke-linecap="round"/>
        <path d="M18.2538 59.6895C16.5624 59.5067 14.8801 59.3147 13.2161 59.1181C11.0784 58.8668 9.08806 57.9014 7.56731 56.3782C6.04657 54.855 5.08443 52.8631 4.83666 50.7249C4.6538 49.0747 4.46637 47.4061 4.28809 45.7192" stroke="#F59F81" stroke-width="6" stroke-linecap="round"/>
      </g>
    </symbol>
    <symbol id="society-light" viewBox="0 0 64 64" fill="none">
      <g>
        <path d="M32 31.7717C33.2901 31.7997 34.5728 31.5698 35.7729 31.0955C36.973 30.6211 38.0662 29.9119 38.9885 29.0094C39.9109 28.1069 40.6437 27.0293 41.1439 25.8399C41.6442 24.6504 41.9019 23.373 41.9019 22.0825C41.9019 20.7921 41.6442 19.5147 41.1439 18.3252C40.6437 17.1357 39.9109 16.0581 38.9885 15.1557C38.0662 14.2532 36.973 13.5439 35.7729 13.0696C34.5728 12.5953 33.2901 12.3654 32 12.3934C29.4297 12.3934 26.9646 13.4145 25.1471 15.232C23.3297 17.0494 22.3086 19.5145 22.3086 22.0848C22.3086 24.6552 23.3297 27.1202 25.1471 28.9377C26.9646 30.7552 29.4297 31.7763 32 31.7763V31.7717Z" fill="#D7E0FF" stroke="#4C4FB6" stroke-width="6" stroke-linecap="round" stroke-linejoin="round"/>
        <path d="M47.8221 46.7339C46.9453 43.2008 44.9111 40.0628 42.0437 37.8201C39.1763 35.5773 35.6407 34.3589 32.0004 34.3589C28.3601 34.3589 24.8246 35.5773 21.9572 37.8201C19.0898 40.0628 17.0556 43.2008 16.1787 46.7339C16.997 47.0082 17.8519 47.2002 18.7296 47.2962C23.0496 47.7762 27.4793 48.1922 32.0004 48.1922C36.5216 48.1922 40.9513 47.7807 45.2713 47.2962C46.149 47.2002 47.0084 47.0082 47.8221 46.7339Z" fill="#D7E0FF" stroke="#4C4FB6" stroke-width="6" stroke-linecap="round" stroke-linejoin="round"/>
        <path d="M45.7461 4.31104C47.4375 4.49389 49.1198 4.68589 50.7838 4.88246C55.1724 5.38532 58.6695 8.88703 59.1632 13.2756C59.3461 14.9259 59.5335 16.5945 59.7118 18.2813" stroke="#4C4FB6" stroke-width="6" stroke-linecap="round"/>
        <path d="M45.7461 59.6895C47.4375 59.5067 49.1198 59.3147 50.7838 59.1181C52.9212 58.866 54.9111 57.9004 56.4317 56.3773C57.9523 54.8542 58.9147 52.8628 59.1632 50.7249C59.3461 49.0747 59.5335 47.4061 59.7118 45.7192" stroke="#4C4FB6" stroke-width="6" stroke-linecap="round"/>
        <path d="M18.2538 4.31104C16.5624 4.49389 14.8801 4.68589 13.2161 4.88246C11.0784 5.13373 9.08806 6.09913 7.56731 7.62236C6.04657 9.14559 5.08443 11.1375 4.83666 13.2756C4.6538 14.9259 4.46637 16.5945 4.28809 18.2813" stroke="#4C4FB6" stroke-width="6" stroke-linecap="round"/>
        <path d="M18.2538 59.6895C16.5624 59.5067 14.8801 59.3147 13.2161 59.1181C11.0784 58.8668 9.08806 57.9014 7.56731 56.3782C6.04657 54.855 5.08443 52.8631 4.83666 50.7249C4.6538 49.0747 4.46637 47.4061 4.28809 45.7192" stroke="#4C4FB6" stroke-width="6" stroke-linecap="round"/>
      </g>
    </symbol>
    <symbol id="taxation-light" viewBox="0 0 64 64" fill="none">
      <g>
        <path d="M4.57129 45.0194C4.57129 48.6445 7.40558 51.6296 10.9713 52.2468C15.6981 53.0651 20.1873 54.1485 31.9999 54.1485C43.8124 54.1485 48.3016 53.0651 53.0284 52.2468C56.5942 51.6296 59.4284 48.6445 59.4284 45.0239V17.8879C59.4284 14.7336 57.2799 12.0136 54.1621 11.5154C46.8294 10.3834 39.4194 9.827 31.9999 9.85135C20.1873 9.85135 15.6981 10.9348 10.9713 11.7531C7.40558 12.3702 4.57129 15.3554 4.57129 18.9759V45.0194Z" fill="white" stroke="#4C4FB6" stroke-width="6" stroke-linecap="round" stroke-linejoin="round"/>
        <path d="M59.4284 25.5681H4.57129V18.7201C4.57129 15.2413 7.29129 12.3796 10.7199 11.7944C11.3461 11.6893 11.9633 11.5796 12.5941 11.4653C16.8181 10.6973 21.5313 9.85156 31.9999 9.85156C41.8421 9.85156 49.6456 10.7887 54.3724 11.5521C57.3576 12.0367 59.4284 14.6516 59.4284 17.6778V25.5681Z" fill="#D7E0FF" stroke="#4C4FB6" stroke-width="6" stroke-linecap="round" stroke-linejoin="round"/>
        <path d="M39.1084 42.144H48.4021" stroke="#4C4FB6" stroke-width="6" stroke-linecap="round" stroke-linejoin="round"/>
      </g>
    </symbol>
    <symbol id="taxation-dark" viewBox="0 0 64 64" fill="none">
      <g>
        <path d="M4.57129 45.0194C4.57129 48.6445 7.40558 51.6296 10.9713 52.2468C15.6981 53.0651 20.1873 54.1485 31.9999 54.1485C43.8124 54.1485 48.3016 53.0651 53.0284 52.2468C56.5942 51.6296 59.4284 48.6445 59.4284 45.0239V17.8879C59.4284 14.7336 57.2799 12.0136 54.1621 11.5154C46.8294 10.3834 39.4194 9.827 31.9999 9.85135C20.1873 9.85135 15.6981 10.9348 10.9713 11.7531C7.40558 12.3702 4.57129 15.3554 4.57129 18.9759V45.0194Z"  fill="#F59F81" fill-opacity="0.25" stroke="#F59F81" stroke-width="6" stroke-linecap="round" stroke-linejoin="round"/>
        <path d="M59.8571 25.7166H5V18.8686C5 15.3897 7.72 12.528 11.1486 11.9429C11.7749 11.8377 12.392 11.728 13.0229 11.6137C17.2469 10.8457 21.96 10 32.4286 10C42.2709 10 50.0743 10.9371 54.8011 11.7006C57.7863 12.1851 59.8571 14.8 59.8571 17.8263V25.7166Z" fill="#F59F81" fill-opacity="0.16" stroke="#F59F81" stroke-width="6" stroke-linecap="round" stroke-linejoin="round"/>
        <path d="M39.1084 42.144H48.4021" stroke="#F59F81" stroke-width="6" stroke-linecap="round" stroke-linejoin="round"/>
      </g>
    </symbol>
    <symbol id="energy-dark" viewBox="0 0 64 64" fill="none">
      <g>
        <path d="M11.7939 11.7942L13.4808 13.481" stroke="#F59F81" stroke-width="6" stroke-linecap="round" stroke-linejoin="round"/>
        <path d="M32 3.42847V5.80561" stroke="#F59F81" stroke-width="6" stroke-linecap="round" stroke-linejoin="round"/>
        <path d="M60.5715 32H58.1943" stroke="#F59F81" stroke-width="6" stroke-linecap="round" stroke-linejoin="round"/>
        <path d="M5.80585 32H3.42871" stroke="#F59F81" stroke-width="6" stroke-linecap="round" stroke-linejoin="round"/>
        <path d="M52.2054 11.7942L50.5186 13.481" stroke="#F59F81" stroke-width="6" stroke-linecap="round" stroke-linejoin="round"/>
        <path d="M47.301 33.0512C47.318 30.6645 46.7765 28.3069 45.7197 26.1669C44.6629 24.0268 43.1201 22.1637 41.2146 20.7264C39.3091 19.2891 37.0938 18.3176 34.7457 17.8894C32.3977 17.4612 29.982 17.5882 27.6919 18.2604C25.4017 18.9325 23.3005 20.1311 21.5563 21.7604C19.8121 23.3896 18.4733 25.4044 17.6468 27.6435C16.8203 29.8826 16.5291 32.284 16.7965 34.6557C17.0639 37.0275 17.8824 39.3038 19.1867 41.3027C21.8472 45.3895 23.4244 46.889 23.4244 51.753C23.4244 52.204 23.6035 52.6365 23.9225 52.9554C24.2414 53.2744 24.6739 53.4535 25.1249 53.4535H38.8758C39.3268 53.4535 39.7594 53.2744 40.0783 52.9554C40.3972 52.6365 40.5764 52.204 40.5764 51.753C40.5764 46.7701 42.3409 45.2935 44.9878 41.0604C46.4884 38.6576 47.2894 35.8841 47.301 33.0512Z" fill="#F59F81" fill-opacity="0.16" stroke="#F59F81" stroke-width="6" stroke-linecap="round" stroke-linejoin="round"/>
        <path d="M25.8923 53.4536H38.1071V57.8879C38.1071 59.5083 37.4634 61.0623 36.3176 62.2081C35.1718 63.3539 33.6178 63.9976 31.9974 63.9976C30.377 63.9976 28.823 63.3539 27.6772 62.2081C26.5314 61.0623 25.8877 59.5083 25.8877 57.8879V53.4536H25.8923Z" fill="#F59F81"/>
      </g>
    </symbol>
    <symbol id="energy-light" viewBox="0 0 64 64" fill="none">
      <g>
        <path d="M11.7939 11.7942L13.4808 13.481" stroke="#4C4FB6" stroke-width="6" stroke-linecap="round" stroke-linejoin="round"/>
        <path d="M32 3.42847V5.80561" stroke="#4C4FB6" stroke-width="6" stroke-linecap="round" stroke-linejoin="round"/>
        <path d="M60.5715 32H58.1943" stroke="#4C4FB6" stroke-width="6" stroke-linecap="round" stroke-linejoin="round"/>
        <path d="M5.80585 32H3.42871" stroke="#4C4FB6" stroke-width="6" stroke-linecap="round" stroke-linejoin="round"/>
        <path d="M52.2054 11.7942L50.5186 13.481" stroke="#4C4FB6" stroke-width="6" stroke-linecap="round" stroke-linejoin="round"/>
        <path d="M47.301 33.0512C47.318 30.6645 46.7765 28.3069 45.7197 26.1669C44.6629 24.0268 43.1201 22.1637 41.2146 20.7264C39.3091 19.2891 37.0938 18.3176 34.7457 17.8894C32.3977 17.4612 29.982 17.5882 27.6919 18.2604C25.4017 18.9325 23.3005 20.1311 21.5563 21.7604C19.8121 23.3896 18.4733 25.4044 17.6468 27.6435C16.8203 29.8826 16.5291 32.284 16.7965 34.6557C17.0639 37.0275 17.8824 39.3038 19.1867 41.3027C21.8472 45.3895 23.4244 46.889 23.4244 51.753C23.4244 52.204 23.6035 52.6365 23.9225 52.9554C24.2414 53.2744 24.6739 53.4535 25.1249 53.4535H38.8758C39.3268 53.4535 39.7594 53.2744 40.0783 52.9554C40.3972 52.6365 40.5764 52.204 40.5764 51.753C40.5764 46.7701 42.3409 45.2935 44.9878 41.0604C46.4884 38.6576 47.2894 35.8841 47.301 33.0512Z" fill="#D7E0FF" stroke="#4C4FB6" stroke-width="6" stroke-linecap="round" stroke-linejoin="round"/>
        <path d="M25.8923 53.4536H38.1071V57.8879C38.1071 59.5083 37.4634 61.0623 36.3176 62.2081C35.1718 63.3539 33.6178 63.9976 31.9974 63.9976C30.377 63.9976 28.823 63.3539 27.6772 62.2081C26.5314 61.0623 25.8877 59.5083 25.8877 57.8879V53.4536H25.8923Z" fill="#4C4FB6"/>
      </g>
    </symbol>
    <symbol id="economy-dark" viewBox="0 0 64 64" fill="none">
      <g>
        <path opacity="0.9" d="M3.42871 3.42871V51.4287C3.42871 53.8535 4.39197 56.1791 6.10659 57.8937C7.82121 59.6083 10.1467 60.5716 12.5716 60.5716H60.5716" stroke="#F59F81" stroke-width="6" stroke-linecap="round" stroke-linejoin="round"/>
        <path d="M16 38.8573L25.1429 45.7144L41.1429 11.4287L59.4286 25.143" stroke="#F59F81" stroke-width="6" stroke-linecap="round" stroke-linejoin="round"/>
      </g>
    </symbol>
    <symbol id="economy-light" viewBox="0 0 64 64" fill="none">
      <g>
        <path opacity="0.9" d="M3.42871 3.42871V51.4287C3.42871 53.8535 4.39197 56.1791 6.10659 57.8937C7.82121 59.6083 10.1467 60.5716 12.5716 60.5716H60.5716" stroke="#4C4FB6" stroke-width="6" stroke-linecap="round" stroke-linejoin="round" fill="0"/>
        <path d="M16 38.8573L25.1429 45.7144L41.1429 11.4287L59.4286 25.143" stroke="#4C4FB6" stroke-width="6" stroke-linecap="round" stroke-linejoin="round"/>
      </g>
    </symbol>
    <symbol id="justice-light" viewBox="0 0 64 64" fill="none">
      <g>
        <path d="M44.7723 8.91429C43.4923 7.63429 43.6523 7.78972 42.7152 6.92114C39.5838 4.03657 34.7061 4.28343 31.4741 7.05829C29.9792 8.34743 28.4661 9.75543 25.9975 12.224C23.5518 14.6651 22.1392 16.1874 20.8501 17.6777C18.0341 20.9417 17.8238 25.8834 20.7312 29.0697C21.5678 29.984 21.3849 29.8194 22.6238 31.0583C23.8581 32.2971 23.6935 32.1143 24.6124 32.9509C27.7986 35.8583 32.7403 35.648 36.0044 32.832C37.4992 31.5429 39.0169 30.1303 41.4581 27.6891C43.9312 25.216 45.3346 23.7029 46.6238 22.208C49.3986 18.9806 49.6501 14.1029 46.7609 10.9714C45.8923 10.0343 46.0523 10.1897 44.7723 8.91429Z" fill="#D7E0FF" stroke="#4C4FB6" stroke-width="6" stroke-linecap="round" stroke-linejoin="round"/>
        <path d="M41.5 27.6433L60.2886 46.4319" stroke="#4C4FB6" stroke-width="6" stroke-linecap="round" stroke-linejoin="round"/>
        <path d="M8 51.4286V60.5715H33.1429V51.4286C33.1429 50.2162 32.6612 49.0534 31.8039 48.1961C30.9466 47.3388 29.7838 46.8572 28.5714 46.8572H12.5714C11.359 46.8572 10.1962 47.3388 9.33894 48.1961C8.48163 49.0534 8 50.2162 8 51.4286Z" fill="#D7E0FF" stroke="#4C4FB6" stroke-width="6" stroke-linecap="round" stroke-linejoin="round"/>
        <path d="M3.42871 60.5715H37.7144" stroke="#4C4FB6" stroke-width="6" stroke-linecap="round"/>
      </g>
    </symbol>
    <symbol id="justice-dark" viewBox="0 0 64 64" fill="none">
      <g>
        <path d="M44.7723 8.91429C43.4923 7.63429 43.6523 7.78972 42.7152 6.92114C39.5838 4.03657 34.7061 4.28343 31.4741 7.05829C29.9792 8.34743 28.4661 9.75543 25.9975 12.224C23.5518 14.6651 22.1392 16.1874 20.8501 17.6777C18.0341 20.9417 17.8238 25.8834 20.7312 29.0697C21.5678 29.984 21.3849 29.8194 22.6238 31.0583C23.8581 32.2971 23.6935 32.1143 24.6124 32.9509C27.7986 35.8583 32.7403 35.648 36.0044 32.832C37.4992 31.5429 39.0169 30.1303 41.4581 27.6891C43.9312 25.216 45.3346 23.7029 46.6238 22.208C49.3986 18.9806 49.6501 14.1029 46.7609 10.9714C45.8923 10.0343 46.0523 10.1897 44.7723 8.91429Z" fill="#F59F81" fill-opacity="0.16" stroke="#F59F81" stroke-width="6" stroke-linecap="round" stroke-linejoin="round"/>
        <path d="M41.5 27.6433L60.2886 46.4319" stroke="#F59F81" stroke-width="6" stroke-linecap="round" stroke-linejoin="round"/>
        <path d="M8 51.4286V60.5715H33.1429V51.4286C33.1429 50.2162 32.6612 49.0534 31.8039 48.1961C30.9466 47.3388 29.7838 46.8572 28.5714 46.8572H12.5714C11.359 46.8572 10.1962 47.3388 9.33894 48.1961C8.48163 49.0534 8 50.2162 8 51.4286Z" fill="#F59F81" fill-opacity="0.16" stroke="#F59F81" stroke-width="6" stroke-linecap="round" stroke-linejoin="round"/>
        <path d="M3.42871 60.5715H37.7144" stroke="#F59F81" stroke-width="6" stroke-linecap="round"/>
      </g>
    </symbol>
  </defs>
</svg>
