<svg xmlns="http://www.w3.org/2000/svg" xmlns:xlink="http://www.w3.org/1999/xlink">
  <defs>
    <symbol id="culture" viewBox="250 297.63 500 397.25">
    <g>        <path d="M250 692.88L319.29 299.63H750L680.71 692.88H250Z" fill="#f99f81" opacity="1" stroke-width="4" stroke="none"></path>        <path d="M534.27 299.63L464.8 692.88" stroke="#000000" stroke-width="4" stroke-linecap="round" stroke-linejoin="round" opacity="1" fill="none"></path>        <path d="M440.45 606.74H307.12L328.65 485.02H461.99L440.45 606.74Z" fill="currentcolor" opacity="1" stroke-width="4" stroke="none"></path>        <path d="M672.66 520.6H539.33L560.86 398.88H694.19L672.66 520.6Z" fill="currentcolor" opacity="1" stroke-width="4" stroke="none"></path>        <path d="M299.63 647.94H432.58" stroke="#000000" stroke-width="4" stroke-linecap="round" stroke-linejoin="round" opacity="1" fill="none"></path>        <path d="M352.06 346.44H485.02" stroke="#000000" stroke-width="4" stroke-linecap="round" stroke-linejoin="round" opacity="1" fill="none"></path>        <path d="M571.16 346.44H704.12" stroke="#000000" stroke-width="4" stroke-linecap="round" stroke-linejoin="round" opacity="1" fill="none"></path>        <path d="M516.85 647.94H649.81" stroke="#000000" stroke-width="4" stroke-linecap="round" stroke-linejoin="round" opacity="1" fill="none"></path>        <path d="M424.16 398.88H477.53" stroke="#000000" stroke-width="4" stroke-linecap="round" stroke-linejoin="round" opacity="1" fill="none"></path>        <path d="M344.57 398.88H397.94" stroke="#000000" stroke-width="4" stroke-linecap="round" stroke-linejoin="round" opacity="1" fill="none"></path>        <path d="M418.54 432.58H471.91" stroke="#000000" stroke-width="4" stroke-linecap="round" stroke-linejoin="round" opacity="1" fill="none"></path>        <path d="M338.95 432.58H392.32" stroke="#000000" stroke-width="4" stroke-linecap="round" stroke-linejoin="round" opacity="1" fill="none"></path>        <path d="M609.55 571.16H662.92" stroke="#000000" stroke-width="4" stroke-linecap="round" stroke-linejoin="round" opacity="1" fill="none"></path>        <path d="M529.96 571.16H583.33" stroke="#000000" stroke-width="4" stroke-linecap="round" stroke-linejoin="round" opacity="1" fill="none"></path>        <path d="M603.93 604.87H657.3" stroke="#000000" stroke-width="4" stroke-linecap="round" stroke-linejoin="round" opacity="1" fill="none"></path>        <path d="M524.34 604.87H577.72" stroke="#000000" stroke-width="4" stroke-linecap="round" stroke-linejoin="round" opacity="1" fill="none"></path>    </g>
    </symbol>
    <symbol id="defense" viewBox="250 364.82 500 270.29">
      <g><path d="M276.44 394.53L723.03 388.52V627.5H276.44V394.53Z" fill="#f99f81" opacity="1" stroke-width="4" stroke="none"></path><path d="M276.44 400.13L723.03 400.2V450.6L276.44 409.08V400.13Z" fill="#030100" opacity="0.3" stroke-width="4" stroke="none"></path><path d="M677.97 516.36C677.97 483.58 651.34 456.94 618.56 456.94 585.71 456.94 559.15 483.51 559.15 516.36 559.15 483.58 532.51 456.94 499.73 456.94 466.89 456.94 440.32 483.51 440.32 516.36 440.32 483.58 413.68 456.94 380.91 456.94 348.06 456.94 321.5 483.51 321.5 516.36 321.5 489.05 302.94 465.29 276.44 458.68V633.11H321.5 440.32 559.15 677.97 723.03V458.74C696.53 465.29 677.97 489.12 677.97 516.36Z" fill="currentcolor" opacity="1" stroke-width="4" stroke="none"></path><path d="M750 364.82H250V400.2H750V364.82Z" fill="#eeb9a8" opacity="1" stroke-width="4" stroke="none"></path><path d="M321.5 510.55V633.11" stroke="#000000" stroke-width="4" stroke-linecap="round" stroke-linejoin="round" opacity="1" fill="none"></path><path d="M440.59 510.55V633.11" stroke="#000000" stroke-width="4" stroke-linecap="round" stroke-linejoin="round" opacity="1" fill="none"></path><path d="M559.41 510.55V633.11" stroke="#000000" stroke-width="4" stroke-linecap="round" stroke-linejoin="round" opacity="1" fill="none"></path><path d="M678.24 510.55V633.11" stroke="#000000" stroke-width="4" stroke-linecap="round" stroke-linejoin="round" opacity="1" fill="none"></path><path d="M723.03 400.13H276.44" stroke="#030100" stroke-width="4" stroke-linecap="round" stroke-linejoin="round" opacity="1" fill="none"></path></g>    
    </symbol>
    <symbol id="ecology" viewBox="353.73 250 292.67 500.26">
      <g><path d="M353.73 383.62C353.73 340.4 388.76 305.49 431.86 305.49 432.46 305.49 433.19 305.49 433.79 305.49 446.91 263.71 491.45 240.48 533.23 253.72 566.21 264.07 588.72 294.77 588.72 329.32 588.72 329.56 588.72 329.68 588.72 329.92V345.45C620.87 345.69 646.63 372.06 646.39 404.2 646.15 435.86 620.51 461.5 588.72 461.87H431.38C388.4 461.5 353.73 426.59 353.73 383.62Z" fill="#f99f81" opacity="1" stroke-width="4" stroke="none"></path><path d="M381.18 324.27C403.81 351.95 437.04 375.79 477.49 390.36 538.76 412.51 601 408.05 642.66 382.89 645.18 389.51 646.51 396.62 646.39 404.08 646.15 435.74 620.51 461.38 588.72 461.75H431.38C388.4 461.5 353.73 426.59 353.73 383.62 353.73 359.9 364.45 338.59 381.18 324.27Z" fill="#adadad" opacity="0.3" stroke-width="4" stroke="none"></path><path d="M520.71 416.24L497.83 429.48" stroke="#757575" stroke-width="4" stroke-linecap="round" stroke-linejoin="round" opacity="1" fill="none"></path><path d="M588.72 345.45H570.3" stroke="#757575" stroke-width="4" stroke-linecap="round" stroke-linejoin="round" opacity="1" fill="none"></path><path d="M433.91 305.49C461 306.21 476.65 318.25 476.65 318.25" stroke="#757575" stroke-width="4" stroke-linecap="round" stroke-linejoin="round" opacity="1" fill="none"></path><path d="M497.35 378.32V748.26" stroke="#757575" stroke-width="4" stroke-linecap="round" stroke-linejoin="round" opacity="1" fill="none"></path><path d="M474.6 612.95L497.35 626.19" stroke="#757575" stroke-width="4" stroke-linecap="round" stroke-linejoin="round" opacity="1" fill="none"></path></g>
    </symbol>
    <symbol id="economy" viewBox="250 332.94 500.08 335.36">
      <g><path d="M590.27 438.47H740.5V666.26H593.64L590.27 438.47Z" fill="#f99f81" opacity="1" stroke-width="4" stroke="none"></path><path d="M410.16 438.47H259.58V666.26H410.16V438.47Z" fill="#f99f81" opacity="1" stroke-width="4" stroke="none"></path><path d="M401.14 464.02L259.58 457.82V449.58H401.14V464.02Z" fill="#261610" opacity="0.3" stroke-width="4" stroke="none"></path><path d="M740.5 464.02L598.94 457.82V449.58H740.5V464.02Z" fill="#261610" opacity="0.3" stroke-width="4" stroke="none"></path><path d="M401.14 438.47H250V453.7H401.14V438.47Z" fill="currentcolor" opacity="1" stroke-width="4" stroke="none"></path><path d="M374.49 477.52H286.03V517.67H374.49V477.52Z" fill="#6e61ff" opacity="1" stroke-width="4" stroke="none"></path><path d="M374.49 538.83H286.03V578.98H374.49V538.83Z" fill="#6e61ff" opacity="1" stroke-width="4" stroke="none"></path><path d="M374.49 600.13H286.03V640.28H374.49V600.13Z" fill="#6e61ff" opacity="1" stroke-width="4" stroke="none"></path><path d="M750.08 438.47H598.94V453.7H750.08V438.47Z" fill="currentcolor" opacity="1" stroke-width="4" stroke="none"></path><path d="M714.05 477.52H625.59V517.67H714.05V477.52Z" fill="#6e61ff" opacity="1" stroke-width="4" stroke="none"></path><path d="M625.59 480.59L714.05 484.43V477.52H625.59V480.59Z" fill="#180f78" opacity="0.3" stroke-width="4" stroke="none"></path><path d="M714.05 538.83H625.59V578.98H714.05V538.83Z" fill="#6e61ff" opacity="1" stroke-width="4" stroke="none"></path><path d="M714.05 600.13H625.59V640.28H714.05V600.13Z" fill="#6e61ff" opacity="1" stroke-width="4" stroke="none"></path><path d="M625.59 541.89L714.05 545.77V538.83H625.59V541.89Z" fill="#180f78" opacity="0.3" stroke-width="4" stroke="none"></path><path d="M625.59 603.23L714.05 607.08V600.13H625.59V603.23Z" fill="#180f78" opacity="0.3" stroke-width="4" stroke="none"></path><path d="M286.03 480.59L374.49 484.43V477.52H286.03V480.59Z" fill="#180f78" opacity="0.3" stroke-width="4" stroke="none"></path><path d="M286.03 541.89L374.49 545.77V538.83H286.03V541.89Z" fill="#180f78" opacity="0.3" stroke-width="4" stroke="none"></path><path d="M286.03 603.23L374.49 607.08V600.13H286.03V603.23Z" fill="#180f78" opacity="0.3" stroke-width="4" stroke="none"></path><path d="M625.59 492.71H714.05" stroke="#000000" stroke-width="4" stroke-linecap="round" stroke-linejoin="round" opacity="1" fill="none"></path><path d="M669.82 517.63V477.52" stroke="#000000" stroke-width="4" stroke-linecap="round" stroke-linejoin="round" opacity="1" fill="none"></path><path d="M625.59 554.06H714.05" stroke="#000000" stroke-width="4" stroke-linecap="round" stroke-linejoin="round" opacity="1" fill="none"></path><path d="M669.82 578.94V538.83" stroke="#000000" stroke-width="4" stroke-linecap="round" stroke-linejoin="round" opacity="1" fill="none"></path><path d="M625.59 615.36H714.05" stroke="#000000" stroke-width="4" stroke-linecap="round" stroke-linejoin="round" opacity="1" fill="none"></path><path d="M669.82 640.28V600.13" stroke="#000000" stroke-width="4" stroke-linecap="round" stroke-linejoin="round" opacity="1" fill="none"></path><path d="M598.9 332.94H401.22V666.26H598.9V332.94Z" fill="#452c5b" opacity="1" stroke-width="4" stroke="none"></path><path d="M401.22 343.5H598.9V360.49L401.22 350.6V343.5Z" fill="#000000" opacity="0.3" stroke-width="4" stroke="none"></path><path d="M401.22 531.57L598.9 542.71V501.11H401.22V531.57Z" fill="#000000" opacity="0.3" stroke-width="4" stroke="none"></path><path d="M579.71 512.81H420.53V666.26H579.71V512.81Z" fill="#f99f81" opacity="1" stroke-width="4" stroke="none"></path><path d="M420.53 512.81H579.71V531.37L420.53 522.34V512.81Z" fill="#261610" opacity="0.3" stroke-width="4" stroke="none"></path><path d="M515.7 362.3H484.5V496.09H515.7V362.3Z" fill="#f99f81" opacity="1" stroke-width="4" stroke="none"></path><path d="M561.07 362.3H529.87V496.09H561.07V362.3Z" fill="#f99f81" opacity="1" stroke-width="4" stroke="none"></path><path d="M470.37 362.3H439.17V496.09H470.37V362.3Z" fill="#f99f81" opacity="1" stroke-width="4" stroke="none"></path><path d="M484.5 362.3V371.72L515.74 373.29V362.3H484.5Z" fill="#af4927" opacity="0.3" stroke-width="4" stroke="none"></path><path d="M529.87 362.3V373.99L561.07 375.56V362.3H529.87Z" fill="#af4927" opacity="0.3" stroke-width="4" stroke="none"></path><path d="M439.17 362.3V369.48L470.41 371.01V362.3H439.17Z" fill="#af4927" opacity="0.3" stroke-width="4" stroke="none"></path><path d="M484.5 499.03V485.37L515.74 486.9V499.03H484.5Z" fill="#261610" opacity="0.3" stroke-width="4" stroke="none"></path><path d="M529.87 499.03V487.61L561.07 489.18V499.03H529.87Z" fill="#261610" opacity="0.3" stroke-width="4" stroke="none"></path><path d="M439.17 499.03V483.1L470.41 484.67V499.03H439.17Z" fill="#261610" opacity="0.3" stroke-width="4" stroke="none"></path><path d="M560.95 578.94H439.05V666.26H560.95V578.94Z" fill="currentcolor" opacity="1" stroke-width="4" stroke="none"></path><path d="M439.05 578.94H560.95V591.42L439.05 583.92V578.94Z" fill="#000001" opacity="0.3" stroke-width="4" stroke="none"></path><path d="M560.95 536.08H439.05V560.61H560.95V536.08Z" fill="#ffffff" opacity="1" stroke-width="4" stroke="none"></path><path d="M609.03 494.99H391.25V517.67H609.03V494.99Z" fill="currentcolor" opacity="1" stroke-width="4" stroke="none"></path><path d="M608.87 332.94H389.32V348.17H608.87V332.94Z" fill="currentcolor" opacity="1" stroke-width="4" stroke="none"></path><path d="M439.05 450.76H470.25" stroke="#261610" stroke-width="4" stroke-linecap="round" stroke-linejoin="round" opacity="1" fill="none"></path><path d="M439.05 406.53H470.25" stroke="#261610" stroke-width="4" stroke-linecap="round" stroke-linejoin="round" opacity="1" fill="none"></path><path d="M484.38 450.76H515.62" stroke="#261610" stroke-width="4" stroke-linecap="round" stroke-linejoin="round" opacity="1" fill="none"></path><path d="M484.38 406.53H515.62" stroke="#261610" stroke-width="4" stroke-linecap="round" stroke-linejoin="round" opacity="1" fill="none"></path><path d="M529.87 450.76H561.07" stroke="#261610" stroke-width="4" stroke-linecap="round" stroke-linejoin="round" opacity="1" fill="none"></path><path d="M529.87 406.53H561.07" stroke="#261610" stroke-width="4" stroke-linecap="round" stroke-linejoin="round" opacity="1" fill="none"></path><path d="M500 578.94V666.3" stroke="#000001" stroke-width="4" stroke-linecap="round" stroke-linejoin="round" opacity="1" fill="none"></path><path d="M514.87 614.06V631.17" stroke="#000001" stroke-width="4" stroke-linecap="round" stroke-linejoin="round" opacity="1" fill="none"></path><path d="M485.13 614.06V631.17" stroke="#000001" stroke-width="4" stroke-linecap="round" stroke-linejoin="round" opacity="1" fill="none"></path><path d="M401.14 453.74H259.58" stroke="#000001" stroke-width="4" stroke-linecap="round" stroke-linejoin="round" opacity="1" fill="none"></path><path d="M598.94 348.17H401.26" stroke="#000001" stroke-width="4" stroke-linecap="round" stroke-linejoin="round" opacity="1" fill="none"></path><path d="M740.62 453.74H599.06" stroke="#000001" stroke-width="4" stroke-linecap="round" stroke-linejoin="round" opacity="1" fill="none"></path><path d="M598.94 517.56H401.26" stroke="#000001" stroke-width="4" stroke-linecap="round" stroke-linejoin="round" opacity="1" fill="none"></path><path d="M568.33 578.78H431.87" stroke="#261610" stroke-width="4" stroke-linecap="round" stroke-linejoin="round" opacity="1" fill="none"></path><path d="M374.49 492.71H286.03" stroke="#000000" stroke-width="4" stroke-linecap="round" stroke-linejoin="round" opacity="1" fill="none"></path><path d="M374.49 554.06H286.03" stroke="#000000" stroke-width="4" stroke-linecap="round" stroke-linejoin="round" opacity="1" fill="none"></path><path d="M374.49 615.36H286.03" stroke="#000000" stroke-width="4" stroke-linecap="round" stroke-linejoin="round" opacity="1" fill="none"></path><path d="M330.26 517.63V477.52" stroke="#000000" stroke-width="4" stroke-linecap="round" stroke-linejoin="round" opacity="1" fill="none"></path><path d="M330.26 578.94V538.83" stroke="#000000" stroke-width="4" stroke-linecap="round" stroke-linejoin="round" opacity="1" fill="none"></path><path d="M330.26 640.28V600.13" stroke="#000000" stroke-width="4" stroke-linecap="round" stroke-linejoin="round" opacity="1" fill="none"></path><path d="M598.94 494.99H401.26" stroke="#000001" stroke-width="4" stroke-linecap="round" stroke-linejoin="round" opacity="1" fill="none"></path></g>
    </symbol>
    <symbol id="education" viewBox="392.48 248 212.59 501.55">
      <g><path d="M422.09 272.7H394.48V342.02H422.09V272.7Z" fill="#f99f81" opacity="1" stroke-width="4" stroke="none"></path><path d="M394.48 272.7H399.94L410 342.02H394.48V272.7Z" fill="currentcolor" opacity="0.3" stroke-width="4" stroke="none"></path><path d="M542.33 286.2H522.7V342.02H542.33V286.2Z" fill="currentcolor" opacity="1" stroke-width="4" stroke="none"></path><path d="M522.7 286.2H524.91L532.52 342.02H522.7V286.2Z" fill="currentcolor" opacity="0.3" stroke-width="4" stroke="none"></path><path d="M507.36 272.7H488.96V342.02H507.36V272.7Z" fill="#5b382c" opacity="1" stroke-width="4" stroke="none"></path><path d="M571.78 272.7H542.33V342.02H571.78V272.7Z" fill="#f99f81" opacity="1" stroke-width="4" stroke="none"></path><path d="M587.42 272.7H571.78V342.02H587.42V272.7Z" fill="#5b382c" opacity="1" stroke-width="4" stroke="none"></path><path d="M571.78 272.7H574.29L580.86 342.02H571.78V272.7Z" fill="currentcolor" opacity="0.3" stroke-width="4" stroke="none"></path><path d="M603.07 272.7H587.42V342.02H603.07V272.7Z" fill="#cecece" opacity="1" stroke-width="4" stroke="none"></path><path d="M472.02 272.54L437.36 332.58 454.36 342.39 489.02 282.36 472.02 272.54Z" fill="currentcolor" opacity="1" stroke-width="4" stroke="none"></path><path d="M485.89 280.43L489.02 282.27 454.36 342.27 437.36 332.45 441.04 326.13 485.89 280.43Z" fill="currentcolor" opacity="0.3" stroke-width="4" stroke="none"></path><path d="M437.42 262.27H422.09V342.02H437.42V262.27Z" fill="#5b382c" opacity="1" stroke-width="4" stroke="none"></path><path d="M522.7 262.27H507.36V342.02H522.7V262.27Z" fill="#cecece" opacity="1" stroke-width="4" stroke="none"></path><path d="M414.11 384.85H394.48V454.17H414.11V384.85Z" fill="#f99f81" opacity="1" stroke-width="4" stroke="none"></path><path d="M394.48 384.85H401.1L411.96 454.17H394.48V384.85Z" fill="currentcolor" opacity="0.3" stroke-width="4" stroke="none"></path><path d="M433.74 384.85H414.11V454.17H433.74V384.85Z" fill="currentcolor" opacity="1" stroke-width="4" stroke="none"></path><path d="M449.08 371.96H433.74V454.17H449.08V371.96Z" fill="#f99f81" opacity="1" stroke-width="4" stroke="none"></path><path d="M485.89 371.96H449.08V454.17H485.89V371.96Z" fill="#5b382c" opacity="1" stroke-width="4" stroke="none"></path><path d="M449.08 371.96H452.45L461.47 454.17H449.08V371.96Z" fill="currentcolor" opacity="0.3" stroke-width="4" stroke="none"></path><path d="M504.29 396.5H485.89V454.17H504.29V396.5Z" fill="#cecece" opacity="1" stroke-width="4" stroke="none"></path><path d="M485.89 396.5H490.43L498.77 454.17H485.89V396.5Z" fill="currentcolor" opacity="0.3" stroke-width="4" stroke="none"></path><path d="M553.99 384.85H535.58V454.17H553.99V384.85Z" fill="#cecece" opacity="1" stroke-width="4" stroke="none"></path><path d="M572.39 384.85H553.99V454.17H572.39V384.85Z" fill="currentcolor" opacity="1" stroke-width="4" stroke="none"></path><path d="M535.58 384.85H504.29V454.17H535.58V384.85Z" fill="#f99f81" opacity="1" stroke-width="4" stroke="none"></path><path d="M603.07 384.85H572.39V454.17H603.07V384.85Z" fill="#5b382c" opacity="1" stroke-width="4" stroke="none"></path><path d="M414.11 593.56H394.48V675.77H414.11V593.56Z" fill="currentcolor" opacity="1" stroke-width="4" stroke="none"></path><path d="M394.48 593.56H399.82L408.83 675.77H394.48V593.56Z" fill="currentcolor" opacity="0.3" stroke-width="4" stroke="none"></path><path d="M433.74 611.35H414.11V675.77H433.74V611.35Z" fill="#5b382c" opacity="1" stroke-width="4" stroke="none"></path><path d="M414.11 611.35H416.93L425.77 675.77H414.11V611.35Z" fill="currentcolor" opacity="0.3" stroke-width="4" stroke="none"></path><path d="M459.51 593.56H433.74V675.77H459.51V593.56Z" fill="#cecece" opacity="1" stroke-width="4" stroke="none"></path><path d="M477.3 593.56H459.51V675.77H477.3V593.56Z" fill="#f99f81" opacity="1" stroke-width="4" stroke="none"></path><path d="M459.51 593.56H461.96L468.4 675.77H459.51V593.56Z" fill="currentcolor" opacity="0.3" stroke-width="4" stroke="none"></path><path d="M492.98 603.75L476.94 617.09 525.73 675.7 541.76 662.36 492.98 603.75Z" fill="currentcolor" opacity="1" stroke-width="4" stroke="none"></path><path d="M510.31 624.48L541.84 662.39 525.83 675.77 518.9 667.42 510.31 624.48Z" fill="currentcolor" opacity="0.3" stroke-width="4" stroke="none"></path><path d="M531.73 598.4L512.94 608.27 548.41 675.78 567.2 665.9 531.73 598.4Z" fill="#f99f81" opacity="1" stroke-width="4" stroke="none"></path><path d="M558.47 648.83L545.83 670.43 548.65 675.77 567.42 665.89 558.47 648.83Z" fill="currentcolor" opacity="0.3" stroke-width="4" stroke="none"></path><path d="M590.18 593.56H567.48V675.77H590.18V593.56Z" fill="currentcolor" opacity="1" stroke-width="4" stroke="none"></path><path d="M603.07 593.56H590.18V675.77H603.07V593.56Z" fill="#5b382c" opacity="1" stroke-width="4" stroke="none"></path><path d="M590.18 593.56H592.64L598.59 675.77H590.18V593.56Z" fill="currentcolor" opacity="0.3" stroke-width="4" stroke="none"></path><path d="M408.59 482.76H394.48V564.97H408.59V482.76Z" fill="#f99f81" opacity="1" stroke-width="4" stroke="none"></path><path d="M394.48 482.76H398.28L405.15 564.97H394.48V482.76Z" fill="currentcolor" opacity="0.3" stroke-width="4" stroke="none"></path><path d="M433.74 482.76H408.59V564.97H433.74V482.76Z" fill="#5b382c" opacity="1" stroke-width="4" stroke="none"></path><path d="M452.76 504.85H433.74V564.97H452.76V504.85Z" fill="#cecece" opacity="1" stroke-width="4" stroke="none"></path><path d="M433.74 504.85H436.32L445.64 564.97H433.74V504.85Z" fill="currentcolor" opacity="0.3" stroke-width="4" stroke="none"></path><path d="M521.47 482.76H499.39V564.97H521.47V482.76Z" fill="#cecece" opacity="1" stroke-width="4" stroke="none"></path><path d="M539.88 495.64H521.47V564.97H539.88V495.64Z" fill="#cecece" opacity="1" stroke-width="4" stroke="none"></path><path d="M539.88 495.64H521.47V564.97H539.88V495.64Z" fill="currentcolor" opacity="1" stroke-width="4" stroke="none"></path><path d="M521.47 495.64H524.11L532.52 564.97H521.47V495.64Z" fill="currentcolor" opacity="0.3" stroke-width="4" stroke="none"></path><path d="M603.07 482.76H584.66V564.97H603.07V482.76Z" fill="#f99f81" opacity="1" stroke-width="4" stroke="none"></path><path d="M558.28 495.64H539.88V564.97H558.28V495.64Z" fill="#f99f81" opacity="1" stroke-width="4" stroke="none"></path><path d="M471.17 495.64H452.76V564.97H471.17V495.64Z" fill="currentcolor" opacity="1" stroke-width="4" stroke="none"></path><path d="M499.39 495.64H471.17V564.97H499.39V495.64Z" fill="#5b382c" opacity="1" stroke-width="4" stroke="none"></path><path d="M584.66 504.85H558.28V564.97H584.66V504.85Z" fill="#5b382c" opacity="1" stroke-width="4" stroke="none"></path><path d="M558.28 504.85H560.49L571.47 564.97H558.28V504.85Z" fill="currentcolor" opacity="0.3" stroke-width="4" stroke="none"></path><path d="M394.48 250V747.55" stroke="currentcolor" stroke-width="4" stroke-linecap="round" stroke-linejoin="round" opacity="1" fill="none"></path><path d="M603.07 250V747.55" stroke="currentcolor" stroke-width="4" stroke-linecap="round" stroke-linejoin="round" opacity="1" fill="none"></path><path d="M394.48 342.02H603.07" stroke="currentcolor" stroke-width="4" stroke-linecap="round" stroke-linejoin="round" opacity="1" fill="none"></path><path d="M394.48 453.25H603.07" stroke="currentcolor" stroke-width="4" stroke-linecap="round" stroke-linejoin="round" opacity="1" fill="none"></path><path d="M394.48 564.54H603.07" stroke="currentcolor" stroke-width="4" stroke-linecap="round" stroke-linejoin="round" opacity="1" fill="none"></path><path d="M394.48 675.77H603.07" stroke="currentcolor" stroke-width="4" stroke-linecap="round" stroke-linejoin="round" opacity="1" fill="none"></path><path d="M572.39 384.85H575.03L585.95 454.17H572.39V384.85Z" fill="currentcolor" opacity="0.3" stroke-width="4" stroke="none"></path></g>
    </symbol>
    <symbol id="foreign-affairs" viewBox="307.76 248 382.48 502">
      <g><path d="M509.38 644.77V730.33" stroke="#312b29" stroke-width="4" stroke-linecap="round" stroke-linejoin="round" opacity="1" fill="none"></path><path d="M593.03 629.3C488.37 672.46 368.43 622.42 325.27 517.76 282.1 413.1 332.14 293.16 436.8 250L593.03 629.3Z" stroke="#312b29" stroke-width="4" stroke-linecap="round" stroke-linejoin="round" opacity="1" fill="none"></path><path d="M593.03 629.3C488.37 672.46 368.43 622.42 325.27 517.76 282.1 413.1 332.14 293.16 436.8 250L593.03 629.3Z" fill="#95837d" opacity="0.3" stroke-width="4" stroke="none"></path><path d="M516.06 266.42C529.05 266.42 542.23 267.95 554.26 270.63 575.84 275.4 608.88 303.86 608.88 303.86 608.88 303.86 648.03 324.68 660.83 343.77 679.35 371.47 690.24 404.89 690.24 440.6 690.24 536.86 612.32 614.78 516.06 614.78 424.58 614.78 349.33 543.54 342.26 453.78 341.88 449.2 341.88 445.38 341.88 440.6 341.88 428.38 356.21 408.9 356.21 408.9 356.21 408.9 352.39 379.49 357.93 367.46 385.62 308.06 446.16 266.42 516.06 266.42Z" fill="#f99f81" opacity="1" stroke-width="4" stroke="none"></path><path d="M399.56 491.6C414.08 554.81 433.94 518.53 451.13 539.34 478.82 572.77 505.37 587.66 525.99 584.61 546.62 581.55 510.33 557.1 510.33 517.76 510.33 478.42 498.87 453.21 469.08 448.82 439.29 444.42 430.31 476.13 411.97 466.58 398.41 459.32 436.42 420.36 439.48 385.98 444.25 334.61 361.17 366.5 357.93 367.46 357.93 367.46 357.73 367.46 357.73 367.65 345.32 394.58 339.78 424.18 342.07 453.78 342.07 453.78 342.07 453.78 342.07 453.97 370.53 490.26 392.11 459.13 399.56 491.6Z" fill="currentcolor" opacity="1" stroke-width="4" stroke="none"></path><path d="M554.26 270.63C549.48 272.54 545.47 275.02 541.46 277.88 503.27 304.24 488.75 362.3 510.33 372.04 531.72 381.78 558.65 345.3 576.99 339 608.69 328.3 603.91 356.95 586.15 365.74 568.39 374.52 538.79 374.71 532.87 398.4 526.76 422.84 551.39 429.14 578.7 432.58 606.02 436.02 608.69 527.69 630.27 519.67 651.85 511.65 673.62 454.74 656.24 385.98 650.32 362.68 654.14 350.65 660.64 343.96V343.77C635.81 306.72 597.8 280.56 554.26 270.63Z" fill="currentcolor" opacity="1" stroke-width="4" stroke="none"></path><path d="M469.84 712.57H550.82C570.87 712.57 587.11 728.8 587.11 748.85V750H433.56V748.85C433.56 728.8 449.79 712.57 469.84 712.57Z" fill="#d3cbc9" opacity="1" stroke-width="4" stroke="none"></path></g>
    </symbol>
    <symbol id="health" viewBox="281.6 250 436.73 499.92">
      <g><path d="M718.33 250H281.6V749.92H718.33V250Z" fill="#f99f81" opacity="1" stroke-width="4" stroke="none"></path><path d="M568.07 610.48C539.99 588.29 523.7 554.45 523.84 518.78V432.27C523.84 385.65 565.12 389.87 582.96 410.93 604.3 436.07 647.13 492.8 638.29 583.37 633.09 637.3 598.26 633.93 568.07 610.48Z" fill="currentcolor" opacity="1" stroke-width="4" stroke="none"></path><path d="M432 610.48C460.08 588.29 476.37 554.45 476.23 518.78V432.27C476.23 385.65 434.95 389.87 417.11 410.93 395.77 436.07 352.94 492.8 361.78 583.37 366.98 637.3 401.81 633.93 432 610.48Z" fill="currentcolor" opacity="1" stroke-width="4" stroke="none"></path><path d="M550.24 509.37L516.54 482.41C509.79 477.07 506 469.21 506 460.78V342.96 333.84C506 330.75 503.48 328.22 500.39 328.22 497.3 328.22 494.77 330.75 494.77 333.84V342.96 460.78C494.77 469.21 490.98 477.07 484.38 482.27L449.27 509.23C446.74 511.05 446.32 514.71 448.29 517.09 450.25 519.62 453.76 520.04 456.15 518.08L491.26 491.11C506.14 478.19 494.63 478.19 509.51 491.11 510.92 491.68 545.46 521.45 546.73 519.34 551.78 519.48 554.45 512.46 550.24 509.37Z" fill="#453abd" opacity="1" stroke-width="4" stroke="none"></path><path d="M455.31 693.47H545.18" stroke="#453abd" stroke-width="4" stroke-linecap="round" stroke-linejoin="round" opacity="1" fill="none"></path></g>
    </symbol>
    <symbol id="society" viewBox="248 314.9 502 371.9">
      <g><path d="M386.11 684.8V567.73C386.11 538.95 409.51 515.51 438.33 515.51H697.78C726.56 515.51 750 538.9 750 567.73V684.8H386.11Z" fill="#f99f81" opacity="1" stroke-width="4" stroke="none"></path><path d="M250 684.8V473.02C250 444.24 273.39 420.8 302.22 420.8H599.96C628.74 420.8 652.18 444.19 652.18 473.02V684.8H250Z" fill="#f99f81" opacity="1" stroke-width="4" stroke="none"></path><path d="M695.09 684.8V602.72C695.09 579.17 675.99 559.55 652.44 559.55H392.32" stroke="#3b3939" stroke-width="4" stroke-linecap="round" opacity="1" fill="none"></path><path d="M652.22 515.3V559.04" stroke="#3b3939" stroke-width="4" stroke-linecap="round" opacity="1" fill="none"></path><path d="M443.15 448.75C443.15 448.75 474.82 465.51 495.52 468.67 524.71 473.17 564.56 452.83 564.56 452.83L557.42 433.38C556.39 430.58 553.7 428.77 550.8 428.87L508.77 430.17 470.73 407.03 443.15 448.75Z" fill="#875446" opacity="1" stroke-width="4" stroke="none"></path><path d="M619.48 493.04L580.8 547.21C581.21 548.73 582.27 548.38 582.13 554.15 585.42 556.6 588.27 558.62 591.17 560.69L637.74 497.76C635.26 495.95 634.06 495.38 632.85 494.72 631.58 494.13 630.61 493.92 628.75 493.49 627.44 493.24 626.82 493.01 625.56 492.73 624.42 492.51 623.34 492.69 621.85 492.8Z" fill="#ffffff" opacity="1" stroke-width="4" stroke="none"></path><path d="M544.02 517.27L546.35 521.93C550.43 526.53 554.94 530.98 559.75 535.44 562.7 538.13 565.7 540.82 568.81 543.51 570.1 544.54 571.34 545.63 572.64 546.67 575.74 549.2 579 551.79 582.37 554.33L623.71 499.04C616.77 496.55 607.25 500.86 591.11 489.79 590.23 489.11 589.35 488.44 588.42 487.61 588.37 487.61 588.37 487.56 588.32 487.56 586.97 486.32 583.82 482.49 579.83 477.37L575.9 472.86 544.02 517.27Z" fill="#875446" opacity="1" stroke-width="4" stroke="none"></path><path d="M606.04 522.68L628.76 493.53C618.84 489.82 610 498.69 598.46 494.03 598.2 497.14 598.31 500.4 598.83 503.66 599.81 510.8 602.5 517.17 605.14 521.03Z" fill="#ffffff" opacity="1" stroke-width="4" stroke="none"></path><path d="M390.41 559.24C435.59 559.24 510.74 470.22 510.74 470.22 517.16 485.08 526.42 499.72 546.35 521.82L579.78 477.42C575.74 472.19 570.72 465.62 565.7 459.1 547.02 434.88 535.94 417.02 515.97 410.24 490.55 401.65 435.59 455.16 435.59 455.16L420.79 429.18 360.81 485.23C360.81 485.23 328.05 559.29 390.41 559.24Z" fill="#ff8961" opacity="1" stroke-width="4" stroke="none"></path><path d="M390.41 559.29C435.59 559.29 510.74 470.28 510.74 470.28 510.74 470.28 507.38 463.08 505.62 456.66 505.62 456.66 447.18 509.61 392.12 509.61 356.46 509.56 390.41 559.29 390.41 559.29Z" fill="#d2562c" opacity="0.3" stroke-width="4" stroke="none"></path><path d="M546.29 521.88L579.78 477.47" stroke="#d2562c" stroke-width="4" stroke-linecap="round" opacity="1" fill="none"></path><path d="M440.15 357.71C440.15 357.71 444.03 355.8 443.61 353.73 443.3 352.22 439.27 351.19 439.27 351.19 438.7 343.79 439.58 332.3 433.99 324.9 428.4 317.55 409.92 314.03 395.69 320.24 383.01 325.73 382.39 339.44 382.39 351.19V388.25L383.63 405.53 419.44 411.12V379.6C419.44 379.6 430.31 382.55 436.11 377.17 441.6 372.15 441.08 364.39 440.15 357.71Z" fill="#875446" opacity="1" stroke-width="4" stroke="none"></path><path d="M408.63 375.1L419.39 384.88V379.6C419.44 379.6 414.22 378.31 408.63 375.1Z" fill="#2a2422" opacity="0.3" stroke-width="4" stroke="none"></path><path d="M434.25 323.91C428.66 316.51 409.56 311.49 395.33 317.7 382.65 323.19 382.34 339.29 382.34 351.03V371.58C387.3 371.22 395.79 369.87 399.16 366.2 399.16 366.2 386.68 353.98 394.39 346.22 401.8 340.01 411.42 350.52 411.42 350.52 411.42 350.52 416.8 346.01 415.51 340.63 427.16 345.29 428.66 334.73 428.66 334.73 433.94 339.6 437.79 339.45 438.39 337.23 438.39 333.59 437.35 327.95 434.25 323.91Z" fill="#222222" opacity="1" stroke-width="4" stroke="none"></path><path d="M401.28 354.71L405.42 358.02" stroke="#2a2422" stroke-width="4" stroke-linecap="round" opacity="1" fill="none"></path><path d="M419.44 379.57C414.27 378.28 411.37 376 411.37 376" stroke="#2a2422" stroke-width="4" stroke-linecap="round" opacity="1" fill="none"></path><path d="M429.48 360.92C430.36 363.61 432.8 363.92 434.19 363.61" stroke="#2a2422" stroke-width="4" stroke-linecap="round" opacity="1" fill="none"></path><path d="M419.44 386.02C419.44 386.02 419.19 400.56 404.59 400.56 390.57 400.56 382.39 385.97 382.39 385.97 374.16 388.14 366.4 391.97 359.56 397.04V397.2C352.47 402.37 339.07 416.71 328.19 435.99L357.86 449.9 356.2 494.08 423.12 496.21 443.2 448.75 462.66 432.18 471.15 407.24C459.24 400.1 436.26 387.26 419.44 386.02Z" fill="currentcolor" opacity="1" stroke-width="4" stroke="none"></path><path d="M374.94 443.67L355.79 481.2 385.29 487.51 378.61 446.37 374.94 443.67Z" fill="#000000" opacity="0.3" stroke-width="4" stroke="none"></path><path d="M430.36 352.43C431.34 352.43 432.12 351.64 432.12 350.67 432.12 349.7 431.34 348.91 430.36 348.91 429.39 348.91 428.6 349.7 428.6 350.67 428.6 351.64 429.39 352.43 430.36 352.43Z" fill="#222222" opacity="1" stroke-width="4" stroke="none"></path><path d="M410.08 674.29H485.64C479.89 664.77 467.16 662.29 467.06 642.98 467.06 641.89 467.06 640.81 467.16 639.57 467.21 639.1 467.27 638.58 467.32 638.06 467.73 634.8 468.61 630.71 470.06 626.06L471.35 618.81 417.48 617.98 414.79 626.06C413.65 631.91 412.72 637.96 411.99 644.27 411.58 648.42 411.11 652.66 410.8 657.01 410.7 658.61 410.59 660.22 410.49 661.87 410.28 665.91 410.18 670.05 410.08 674.29Z" fill="#875446" opacity="1" stroke-width="4" stroke="none"></path><path d="M450.19 674.67H485.88C481.14 666.79 472.29 663.63 468.71 653.12 466.54 654.42 464.42 655.87 462.4 657.58 456.66 662.34 452.52 668.24 450.19 674.67Z" fill="#ffffff" opacity="1" stroke-width="4" stroke="none"></path><path d="M391.91 560.33H436.99C427.47 579.17 419.5 601.11 414.73 626.01H470.06C478.86 597.18 503.8 545.89 486.05 524.77 464.21 498.84 393.2 490.93 393.2 490.93L358.94 488.75C358.94 488.75 352.84 499.21 349.01 515.82 343.78 538.7 357.29 560.33 391.91 560.33Z" fill="#ff8961" opacity="1" stroke-width="4" stroke="none"></path><path d="M470.06 512.46C440.82 496.36 393.2 491.03 393.2 491.03" stroke="#d2562c" stroke-width="4" stroke-linecap="round" opacity="1" fill="none"></path><path d="M401.07 560.33C386.22 560.33 437.09 560.33 437.09 560.33L446.15 543.35C439.11 541.23 420.63 560.33 401.07 560.33Z" fill="#d2562c" opacity="0.3" stroke-width="4" stroke="none"></path><path d="M443.92 547.44C441.75 551.53 437.04 560.33 437.04 560.33" stroke="#d2562c" stroke-width="4" stroke-linecap="round" opacity="1" fill="none"></path><path d="M438.23 485.91C438.54 483.53 423.79 478.45 408.58 474.93 392.69 471.21 363.03 467.33 363.03 467.33 363.03 467.33 365.88 462.1 369.14 455.16L328.51 435.45C323.28 444.55 316.76 456.72 313.87 467.38 305.12 500.09 328.46 501.85 340.21 502.42 351.9 502.98 382.91 500.66 382.91 500.66 382.91 500.66 408.58 508.26 416.18 508.26 423.79 508.26 423.22 504.74 423.22 504.74 423.22 504.74 431.4 505.31 430.83 500.03 430.83 500.03 440.82 498.43 435.54 494.19 432.59 491.86 417.43 486.01 416.24 485.39 422.7 485.96 437.77 490.46 438.23 485.91Z" fill="#875446" opacity="1" stroke-width="4" stroke="none"></path><path d="M362.48 467.26L347.56 464.78" stroke="#2a2422" stroke-width="4" stroke-linecap="round" opacity="1" fill="none"></path><path d="M423.27 504.64L404.59 498.22" stroke="#2a2422" stroke-width="4" stroke-linecap="round" opacity="1" fill="none"></path><path d="M430.88 499.36L408.11 490.05" stroke="#2a2422" stroke-width="4" stroke-linecap="round" opacity="1" fill="none"></path><path d="M417.34 485.69L410.97 483.36" stroke="#2a2422" stroke-width="4" stroke-linecap="round" opacity="1" fill="none"></path><path d="M549.87 428.15C539.51 428.15 530.25 429.39 529.27 432.7 528.7 436.58 536.98 437.46 541.38 438.5 541.38 438.5 540.08 441.4 529.94 449.01 519.8 456.61 526.94 459.93 526.94 459.93 524.76 467.27 532.01 466.08 532.01 466.08 531.03 473.69 546.29 469.29 549.71 466.39 549.71 466.39 545.1 477 548.78 477.21 553.18 477.52 571.24 457.6 569.12 442.9 567.67 432.65 560.22 428.15 549.87 428.15Z" fill="#875446" opacity="1" stroke-width="4" stroke="none"></path><path d="M449.36 433.06L443.2 448.75" stroke="#000000" stroke-width="4" stroke-linecap="round" opacity="1" fill="none"></path><path d="M507.23 458.68C509.24 466.76 510.74 470.28 510.74 470.28" stroke="#d2562c" stroke-width="4" stroke-linecap="round" opacity="1" fill="none"></path><path d="M559.6 457.8C559.6 457.8 555.2 462.62 548.74 467.12" stroke="#2a2422" stroke-width="4" stroke-linecap="round" opacity="1" fill="none"></path><path d="M555.45 451.64C555.45 451.64 541.48 463.55 532.68 465.97" stroke="#2a2422" stroke-width="4" stroke-linecap="round" opacity="1" fill="none"></path><path d="M551.42 443.83C551.42 443.83 537.55 455.22 526.94 459.82" stroke="#2a2422" stroke-width="4" stroke-linecap="round" opacity="1" fill="none"></path><path d="M369.18 455.09L374.94 444.61" stroke="#000000" stroke-width="4" stroke-linecap="round" opacity="1" fill="none"></path><path d="M414.79 626.01H470.11" stroke="#d2562c" stroke-width="4" stroke-linecap="round" opacity="1" fill="none"></path><path d="M485.37 674.17H420.99C418.51 674.15 411.16 674.31 410.07 674.31 409.94 675.15 410.03 676.95 410.03 677.43 410.04 677.78 410.05 681.54 410.48 685.09H488.78C488.78 682.14 488.37 679.71 487.59 677.64 487.18 676.45 486.55 675.21 485.39 674.17Z" fill="#ffffff" opacity="1" stroke-width="4" stroke="none"></path><path d="M250 684.8V515.56H340.16C352.68 515.56 364.79 520.06 374.26 528.24 383.73 536.42 389.94 547.7 391.81 560.07 392.17 562.61 392.38 565.19 392.38 567.73V684.8H250Z" fill="#f99f81" opacity="1" stroke-width="4" stroke="none"></path><path d="M392.84 684.8V567.73C392.84 565.14 392.64 562.61 392.27 560.07" stroke="#3b3939" stroke-width="4" stroke-linecap="round" opacity="1" fill="none"></path><path d="M348.95 515.56H250" stroke="#3b3939" stroke-width="4" stroke-linecap="round" opacity="1" fill="none"></path></g>
    </symbol>
    <symbol id="taxation" viewBox="250 329.69 498.68 341.81">
      <g><path d="M295.51 671.5C289.04 671.49 282.83 668.91 278.25 664.33 273.68 659.76 271.1 653.55 271.09 647.08V381.29C271.08 374.8 273.64 368.56 278.22 363.96 282.8 359.35 289.02 356.75 295.51 356.72H724.26C730.75 356.73 736.95 359.3 741.53 363.88 746.1 368.46 748.68 374.66 748.68 381.14V647.08C748.68 653.55 746.1 659.76 741.53 664.33 736.95 668.91 730.75 671.49 724.26 671.5H295.51Z" fill="#272727" opacity="0.2" stroke-width="4" stroke="none"></path><path d="M274.42 644.46C267.95 644.46 261.74 641.88 257.16 637.3 252.58 632.73 250.01 626.52 250 620.04V354.26C249.99 347.77 252.55 341.53 257.13 336.93 261.71 332.32 267.92 329.72 274.42 329.69H703.17C709.65 329.69 715.85 332.27 720.43 336.85 725.01 341.43 727.59 347.63 727.59 354.11V620.04C727.59 626.52 725.01 632.73 720.43 637.3 715.85 641.88 709.65 644.46 703.17 644.46H274.42Z" fill="#f99f81" opacity="1" stroke-width="4" stroke="none"></path><path d="M250.04 456.34L250 389.89 727.7 389.84 727.75 456.34H250.04Z" fill="#272727" opacity="1" stroke-width="4" stroke="none"></path><path d="M334.89 594.62C328.27 594.59 321.93 591.94 317.27 587.24 312.6 582.55 309.99 576.19 310 569.58 309.95 566.31 310.56 563.06 311.78 560.03 313 557 314.82 554.25 317.12 551.93 319.44 549.57 322.21 547.71 325.26 546.44 328.31 545.17 331.59 544.52 334.89 544.53H396.45C403.07 544.57 409.4 547.23 414.06 551.92 418.71 556.61 421.34 562.96 421.34 569.58 421.34 576.19 418.71 582.54 414.06 587.23 409.4 591.92 403.07 594.58 396.45 594.62L334.89 594.62Z" fill="#ddc9c2" opacity="1" stroke-width="4" stroke="none"></path><path d="M630.04 594.31C622.56 594.31 615.25 592.09 609.01 587.93 602.79 583.77 597.93 577.85 595.07 570.94 592.2 564.02 591.45 556.41 592.92 549.06 594.37 541.72 597.98 534.98 603.28 529.68 608.57 524.39 615.32 520.78 622.67 519.32 630.01 517.86 637.62 518.61 644.53 521.48 651.45 524.34 657.35 529.19 661.53 535.42 665.68 541.64 667.9 548.96 667.9 556.45 667.89 566.49 663.9 576.11 656.81 583.21 649.7 590.3 640.07 594.3 630.04 594.31V594.31Z" fill="currentcolor" opacity="1" stroke-width="4" stroke="none"></path><path d="M581.14 594.31C573.65 594.31 566.34 592.09 560.1 587.93 553.89 583.77 549.03 577.85 546.17 570.94 543.29 564.02 542.54 556.41 544.01 549.07 545.46 541.72 549.07 534.98 554.37 529.68 559.67 524.39 566.4 520.78 573.75 519.32 581.09 517.86 588.71 518.61 595.62 521.48 602.54 524.34 608.45 529.19 612.62 535.42 616.78 541.64 619 548.96 619 556.45 618.98 566.49 615 576.11 607.89 583.21 600.79 590.3 591.17 594.3 581.14 594.31V594.31Z" fill="currentcolor" opacity="1" stroke-width="4" stroke="none"></path></g>
    </symbol>
  </defs>
</svg>