<svg xmlns="http://www.w3.org/2000/svg" version="1.1" xmlns:xlink="http://www.w3.org/1999/xlink" xmlns:svgjs="http://svgjs.com/svgjs" viewBox="250 364.82 500 270.29"> <g><path d="M276.44 394.53L723.03 388.52V627.5H276.44V394.53Z" fill="#f99f81" opacity="1" stroke-width="4" stroke="none"></path><path d="M276.44 400.13L723.03 400.2V450.6L276.44 409.08V400.13Z" fill="#030100" opacity="0.3" stroke-width="4" stroke="none"></path><path d="M677.97 516.36C677.97 483.58 651.34 456.94 618.56 456.94 585.71 456.94 559.15 483.51 559.15 516.36 559.15 483.58 532.51 456.94 499.73 456.94 466.89 456.94 440.32 483.51 440.32 516.36 440.32 483.58 413.68 456.94 380.91 456.94 348.06 456.94 321.5 483.51 321.5 516.36 321.5 489.05 302.94 465.29 276.44 458.68V633.11H321.5 440.32 559.15 677.97 723.03V458.74C696.53 465.29 677.97 489.12 677.97 516.36Z" fill="#2f2788" opacity="1" stroke-width="4" stroke="none"></path><path d="M750 364.82H250V400.2H750V364.82Z" fill="#eeb9a8" opacity="1" stroke-width="4" stroke="none"></path><path d="M321.5 510.55V633.11" stroke="#000000" stroke-width="4" stroke-linecap="round" stroke-linejoin="round" opacity="1" fill="none"></path><path d="M440.59 510.55V633.11" stroke="#000000" stroke-width="4" stroke-linecap="round" stroke-linejoin="round" opacity="1" fill="none"></path><path d="M559.41 510.55V633.11" stroke="#000000" stroke-width="4" stroke-linecap="round" stroke-linejoin="round" opacity="1" fill="none"></path><path d="M678.24 510.55V633.11" stroke="#000000" stroke-width="4" stroke-linecap="round" stroke-linejoin="round" opacity="1" fill="none"></path><path d="M723.03 400.13H276.44" stroke="#030100" stroke-width="4" stroke-linecap="round" stroke-linejoin="round" opacity="1" fill="none"></path></g></svg>