<svg xmlns="http://www.w3.org/2000/svg" version="1.1" xmlns:xlink="http://www.w3.org/1999/xlink" xmlns:svgjs="http://svgjs.com/svgjs" viewBox="353.73 250 292.67 500.26"> <g><path d="M353.73 383.62C353.73 340.4 388.76 305.49 431.86 305.49 432.46 305.49 433.19 305.49 433.79 305.49 446.91 263.71 491.45 240.48 533.23 253.72 566.21 264.07 588.72 294.77 588.72 329.32 588.72 329.56 588.72 329.68 588.72 329.92V345.45C620.87 345.69 646.63 372.06 646.39 404.2 646.15 435.86 620.51 461.5 588.72 461.87H431.38C388.4 461.5 353.73 426.59 353.73 383.62Z" fill="#f99f81" opacity="1" stroke-width="4" stroke="none"></path><path d="M381.18 324.27C403.81 351.95 437.04 375.79 477.49 390.36 538.76 412.51 601 408.05 642.66 382.89 645.18 389.51 646.51 396.62 646.39 404.08 646.15 435.74 620.51 461.38 588.72 461.75H431.38C388.4 461.5 353.73 426.59 353.73 383.62 353.73 359.9 364.45 338.59 381.18 324.27Z" fill="#adadad" opacity="0.3" stroke-width="4" stroke="none"></path><path d="M520.71 416.24L497.83 429.48" stroke="#757575" stroke-width="4" stroke-linecap="round" stroke-linejoin="round" opacity="1" fill="none"></path><path d="M588.72 345.45H570.3" stroke="#757575" stroke-width="4" stroke-linecap="round" stroke-linejoin="round" opacity="1" fill="none"></path><path d="M433.91 305.49C461 306.21 476.65 318.25 476.65 318.25" stroke="#757575" stroke-width="4" stroke-linecap="round" stroke-linejoin="round" opacity="1" fill="none"></path><path d="M497.35 378.32V748.26" stroke="#757575" stroke-width="4" stroke-linecap="round" stroke-linejoin="round" opacity="1" fill="none"></path><path d="M474.6 612.95L497.35 626.19" stroke="#757575" stroke-width="4" stroke-linecap="round" stroke-linejoin="round" opacity="1" fill="none"></path></g></svg>