<svg xmlns="http://www.w3.org/2000/svg" version="1.1" xmlns:xlink="http://www.w3.org/1999/xlink" xmlns:svgjs="http://svgjs.com/svgjs" viewBox="250 332.94 500.08 335.36"> <g><path d="M590.27 438.47H740.5V666.26H593.64L590.27 438.47Z" fill="#f99f81" opacity="1" stroke-width="4" stroke="none"></path><path d="M410.16 438.47H259.58V666.26H410.16V438.47Z" fill="#f99f81" opacity="1" stroke-width="4" stroke="none"></path><path d="M401.14 464.02L259.58 457.82V449.58H401.14V464.02Z" fill="#261610" opacity="0.3" stroke-width="4" stroke="none"></path><path d="M740.5 464.02L598.94 457.82V449.58H740.5V464.02Z" fill="#261610" opacity="0.3" stroke-width="4" stroke="none"></path><path d="M401.14 438.47H250V453.7H401.14V438.47Z" fill="#2f2788" opacity="1" stroke-width="4" stroke="none"></path><path d="M374.49 477.52H286.03V517.67H374.49V477.52Z" fill="#6e61ff" opacity="1" stroke-width="4" stroke="none"></path><path d="M374.49 538.83H286.03V578.98H374.49V538.83Z" fill="#6e61ff" opacity="1" stroke-width="4" stroke="none"></path><path d="M374.49 600.13H286.03V640.28H374.49V600.13Z" fill="#6e61ff" opacity="1" stroke-width="4" stroke="none"></path><path d="M750.08 438.47H598.94V453.7H750.08V438.47Z" fill="#2f2788" opacity="1" stroke-width="4" stroke="none"></path><path d="M714.05 477.52H625.59V517.67H714.05V477.52Z" fill="#6e61ff" opacity="1" stroke-width="4" stroke="none"></path><path d="M625.59 480.59L714.05 484.43V477.52H625.59V480.59Z" fill="#180f78" opacity="0.3" stroke-width="4" stroke="none"></path><path d="M714.05 538.83H625.59V578.98H714.05V538.83Z" fill="#6e61ff" opacity="1" stroke-width="4" stroke="none"></path><path d="M714.05 600.13H625.59V640.28H714.05V600.13Z" fill="#6e61ff" opacity="1" stroke-width="4" stroke="none"></path><path d="M625.59 541.89L714.05 545.77V538.83H625.59V541.89Z" fill="#180f78" opacity="0.3" stroke-width="4" stroke="none"></path><path d="M625.59 603.23L714.05 607.08V600.13H625.59V603.23Z" fill="#180f78" opacity="0.3" stroke-width="4" stroke="none"></path><path d="M286.03 480.59L374.49 484.43V477.52H286.03V480.59Z" fill="#180f78" opacity="0.3" stroke-width="4" stroke="none"></path><path d="M286.03 541.89L374.49 545.77V538.83H286.03V541.89Z" fill="#180f78" opacity="0.3" stroke-width="4" stroke="none"></path><path d="M286.03 603.23L374.49 607.08V600.13H286.03V603.23Z" fill="#180f78" opacity="0.3" stroke-width="4" stroke="none"></path><path d="M625.59 492.71H714.05" stroke="#000000" stroke-width="4" stroke-linecap="round" stroke-linejoin="round" opacity="1" fill="none"></path><path d="M669.82 517.63V477.52" stroke="#000000" stroke-width="4" stroke-linecap="round" stroke-linejoin="round" opacity="1" fill="none"></path><path d="M625.59 554.06H714.05" stroke="#000000" stroke-width="4" stroke-linecap="round" stroke-linejoin="round" opacity="1" fill="none"></path><path d="M669.82 578.94V538.83" stroke="#000000" stroke-width="4" stroke-linecap="round" stroke-linejoin="round" opacity="1" fill="none"></path><path d="M625.59 615.36H714.05" stroke="#000000" stroke-width="4" stroke-linecap="round" stroke-linejoin="round" opacity="1" fill="none"></path><path d="M669.82 640.28V600.13" stroke="#000000" stroke-width="4" stroke-linecap="round" stroke-linejoin="round" opacity="1" fill="none"></path><path d="M598.9 332.94H401.22V666.26H598.9V332.94Z" fill="#452c5b" opacity="1" stroke-width="4" stroke="none"></path><path d="M401.22 343.5H598.9V360.49L401.22 350.6V343.5Z" fill="#000000" opacity="0.3" stroke-width="4" stroke="none"></path><path d="M401.22 531.57L598.9 542.71V501.11H401.22V531.57Z" fill="#000000" opacity="0.3" stroke-width="4" stroke="none"></path><path d="M579.71 512.81H420.53V666.26H579.71V512.81Z" fill="#f99f81" opacity="1" stroke-width="4" stroke="none"></path><path d="M420.53 512.81H579.71V531.37L420.53 522.34V512.81Z" fill="#261610" opacity="0.3" stroke-width="4" stroke="none"></path><path d="M515.7 362.3H484.5V496.09H515.7V362.3Z" fill="#f99f81" opacity="1" stroke-width="4" stroke="none"></path><path d="M561.07 362.3H529.87V496.09H561.07V362.3Z" fill="#f99f81" opacity="1" stroke-width="4" stroke="none"></path><path d="M470.37 362.3H439.17V496.09H470.37V362.3Z" fill="#f99f81" opacity="1" stroke-width="4" stroke="none"></path><path d="M484.5 362.3V371.72L515.74 373.29V362.3H484.5Z" fill="#af4927" opacity="0.3" stroke-width="4" stroke="none"></path><path d="M529.87 362.3V373.99L561.07 375.56V362.3H529.87Z" fill="#af4927" opacity="0.3" stroke-width="4" stroke="none"></path><path d="M439.17 362.3V369.48L470.41 371.01V362.3H439.17Z" fill="#af4927" opacity="0.3" stroke-width="4" stroke="none"></path><path d="M484.5 499.03V485.37L515.74 486.9V499.03H484.5Z" fill="#261610" opacity="0.3" stroke-width="4" stroke="none"></path><path d="M529.87 499.03V487.61L561.07 489.18V499.03H529.87Z" fill="#261610" opacity="0.3" stroke-width="4" stroke="none"></path><path d="M439.17 499.03V483.1L470.41 484.67V499.03H439.17Z" fill="#261610" opacity="0.3" stroke-width="4" stroke="none"></path><path d="M560.95 578.94H439.05V666.26H560.95V578.94Z" fill="#2f2788" opacity="1" stroke-width="4" stroke="none"></path><path d="M439.05 578.94H560.95V591.42L439.05 583.92V578.94Z" fill="#000001" opacity="0.3" stroke-width="4" stroke="none"></path><path d="M560.95 536.08H439.05V560.61H560.95V536.08Z" fill="#ffffff" opacity="1" stroke-width="4" stroke="none"></path><path d="M609.03 494.99H391.25V517.67H609.03V494.99Z" fill="#2f2788" opacity="1" stroke-width="4" stroke="none"></path><path d="M608.87 332.94H389.32V348.17H608.87V332.94Z" fill="#2f2788" opacity="1" stroke-width="4" stroke="none"></path><path d="M439.05 450.76H470.25" stroke="#261610" stroke-width="4" stroke-linecap="round" stroke-linejoin="round" opacity="1" fill="none"></path><path d="M439.05 406.53H470.25" stroke="#261610" stroke-width="4" stroke-linecap="round" stroke-linejoin="round" opacity="1" fill="none"></path><path d="M484.38 450.76H515.62" stroke="#261610" stroke-width="4" stroke-linecap="round" stroke-linejoin="round" opacity="1" fill="none"></path><path d="M484.38 406.53H515.62" stroke="#261610" stroke-width="4" stroke-linecap="round" stroke-linejoin="round" opacity="1" fill="none"></path><path d="M529.87 450.76H561.07" stroke="#261610" stroke-width="4" stroke-linecap="round" stroke-linejoin="round" opacity="1" fill="none"></path><path d="M529.87 406.53H561.07" stroke="#261610" stroke-width="4" stroke-linecap="round" stroke-linejoin="round" opacity="1" fill="none"></path><path d="M500 578.94V666.3" stroke="#000001" stroke-width="4" stroke-linecap="round" stroke-linejoin="round" opacity="1" fill="none"></path><path d="M514.87 614.06V631.17" stroke="#000001" stroke-width="4" stroke-linecap="round" stroke-linejoin="round" opacity="1" fill="none"></path><path d="M485.13 614.06V631.17" stroke="#000001" stroke-width="4" stroke-linecap="round" stroke-linejoin="round" opacity="1" fill="none"></path><path d="M401.14 453.74H259.58" stroke="#000001" stroke-width="4" stroke-linecap="round" stroke-linejoin="round" opacity="1" fill="none"></path><path d="M598.94 348.17H401.26" stroke="#000001" stroke-width="4" stroke-linecap="round" stroke-linejoin="round" opacity="1" fill="none"></path><path d="M740.62 453.74H599.06" stroke="#000001" stroke-width="4" stroke-linecap="round" stroke-linejoin="round" opacity="1" fill="none"></path><path d="M598.94 517.56H401.26" stroke="#000001" stroke-width="4" stroke-linecap="round" stroke-linejoin="round" opacity="1" fill="none"></path><path d="M568.33 578.78H431.87" stroke="#261610" stroke-width="4" stroke-linecap="round" stroke-linejoin="round" opacity="1" fill="none"></path><path d="M374.49 492.71H286.03" stroke="#000000" stroke-width="4" stroke-linecap="round" stroke-linejoin="round" opacity="1" fill="none"></path><path d="M374.49 554.06H286.03" stroke="#000000" stroke-width="4" stroke-linecap="round" stroke-linejoin="round" opacity="1" fill="none"></path><path d="M374.49 615.36H286.03" stroke="#000000" stroke-width="4" stroke-linecap="round" stroke-linejoin="round" opacity="1" fill="none"></path><path d="M330.26 517.63V477.52" stroke="#000000" stroke-width="4" stroke-linecap="round" stroke-linejoin="round" opacity="1" fill="none"></path><path d="M330.26 578.94V538.83" stroke="#000000" stroke-width="4" stroke-linecap="round" stroke-linejoin="round" opacity="1" fill="none"></path><path d="M330.26 640.28V600.13" stroke="#000000" stroke-width="4" stroke-linecap="round" stroke-linejoin="round" opacity="1" fill="none"></path><path d="M598.94 494.99H401.26" stroke="#000001" stroke-width="4" stroke-linecap="round" stroke-linejoin="round" opacity="1" fill="none"></path></g></svg>