<svg xmlns="http://www.w3.org/2000/svg" version="1.1" xmlns:xlink="http://www.w3.org/1999/xlink" xmlns:svgjs="http://svgjs.com/svgjs" viewBox="392.48 248 212.59 501.55"> <g><path d="M422.09 272.7H394.48V342.02H422.09V272.7Z" fill="#f99f81" opacity="1" stroke-width="4" stroke="none"></path><path d="M394.48 272.7H399.94L410 342.02H394.48V272.7Z" fill="#030100" opacity="0.3" stroke-width="4" stroke="none"></path><path d="M542.33 286.2H522.7V342.02H542.33V286.2Z" fill="#2f2788" opacity="1" stroke-width="4" stroke="none"></path><path d="M522.7 286.2H524.91L532.52 342.02H522.7V286.2Z" fill="#030100" opacity="0.3" stroke-width="4" stroke="none"></path><path d="M507.36 272.7H488.96V342.02H507.36V272.7Z" fill="#5b382c" opacity="1" stroke-width="4" stroke="none"></path><path d="M571.78 272.7H542.33V342.02H571.78V272.7Z" fill="#f99f81" opacity="1" stroke-width="4" stroke="none"></path><path d="M587.42 272.7H571.78V342.02H587.42V272.7Z" fill="#5b382c" opacity="1" stroke-width="4" stroke="none"></path><path d="M571.78 272.7H574.29L580.86 342.02H571.78V272.7Z" fill="#030100" opacity="0.3" stroke-width="4" stroke="none"></path><path d="M603.07 272.7H587.42V342.02H603.07V272.7Z" fill="#cecece" opacity="1" stroke-width="4" stroke="none"></path><path d="M472.02 272.54L437.36 332.58 454.36 342.39 489.02 282.36 472.02 272.54Z" fill="#2f2788" opacity="1" stroke-width="4" stroke="none"></path><path d="M485.89 280.43L489.02 282.27 454.36 342.27 437.36 332.45 441.04 326.13 485.89 280.43Z" fill="#030100" opacity="0.3" stroke-width="4" stroke="none"></path><path d="M437.42 262.27H422.09V342.02H437.42V262.27Z" fill="#5b382c" opacity="1" stroke-width="4" stroke="none"></path><path d="M522.7 262.27H507.36V342.02H522.7V262.27Z" fill="#cecece" opacity="1" stroke-width="4" stroke="none"></path><path d="M414.11 384.85H394.48V454.17H414.11V384.85Z" fill="#f99f81" opacity="1" stroke-width="4" stroke="none"></path><path d="M394.48 384.85H401.1L411.96 454.17H394.48V384.85Z" fill="#030100" opacity="0.3" stroke-width="4" stroke="none"></path><path d="M433.74 384.85H414.11V454.17H433.74V384.85Z" fill="#2f2788" opacity="1" stroke-width="4" stroke="none"></path><path d="M449.08 371.96H433.74V454.17H449.08V371.96Z" fill="#f99f81" opacity="1" stroke-width="4" stroke="none"></path><path d="M485.89 371.96H449.08V454.17H485.89V371.96Z" fill="#5b382c" opacity="1" stroke-width="4" stroke="none"></path><path d="M449.08 371.96H452.45L461.47 454.17H449.08V371.96Z" fill="#030100" opacity="0.3" stroke-width="4" stroke="none"></path><path d="M504.29 396.5H485.89V454.17H504.29V396.5Z" fill="#cecece" opacity="1" stroke-width="4" stroke="none"></path><path d="M485.89 396.5H490.43L498.77 454.17H485.89V396.5Z" fill="#030100" opacity="0.3" stroke-width="4" stroke="none"></path><path d="M553.99 384.85H535.58V454.17H553.99V384.85Z" fill="#cecece" opacity="1" stroke-width="4" stroke="none"></path><path d="M572.39 384.85H553.99V454.17H572.39V384.85Z" fill="#2f2788" opacity="1" stroke-width="4" stroke="none"></path><path d="M535.58 384.85H504.29V454.17H535.58V384.85Z" fill="#f99f81" opacity="1" stroke-width="4" stroke="none"></path><path d="M603.07 384.85H572.39V454.17H603.07V384.85Z" fill="#5b382c" opacity="1" stroke-width="4" stroke="none"></path><path d="M414.11 593.56H394.48V675.77H414.11V593.56Z" fill="#2f2788" opacity="1" stroke-width="4" stroke="none"></path><path d="M394.48 593.56H399.82L408.83 675.77H394.48V593.56Z" fill="#030100" opacity="0.3" stroke-width="4" stroke="none"></path><path d="M433.74 611.35H414.11V675.77H433.74V611.35Z" fill="#5b382c" opacity="1" stroke-width="4" stroke="none"></path><path d="M414.11 611.35H416.93L425.77 675.77H414.11V611.35Z" fill="#030100" opacity="0.3" stroke-width="4" stroke="none"></path><path d="M459.51 593.56H433.74V675.77H459.51V593.56Z" fill="#cecece" opacity="1" stroke-width="4" stroke="none"></path><path d="M477.3 593.56H459.51V675.77H477.3V593.56Z" fill="#f99f81" opacity="1" stroke-width="4" stroke="none"></path><path d="M459.51 593.56H461.96L468.4 675.77H459.51V593.56Z" fill="#030100" opacity="0.3" stroke-width="4" stroke="none"></path><path d="M492.98 603.75L476.94 617.09 525.73 675.7 541.76 662.36 492.98 603.75Z" fill="#2f2788" opacity="1" stroke-width="4" stroke="none"></path><path d="M510.31 624.48L541.84 662.39 525.83 675.77 518.9 667.42 510.31 624.48Z" fill="#030100" opacity="0.3" stroke-width="4" stroke="none"></path><path d="M531.73 598.4L512.94 608.27 548.41 675.78 567.2 665.9 531.73 598.4Z" fill="#f99f81" opacity="1" stroke-width="4" stroke="none"></path><path d="M558.47 648.83L545.83 670.43 548.65 675.77 567.42 665.89 558.47 648.83Z" fill="#030100" opacity="0.3" stroke-width="4" stroke="none"></path><path d="M590.18 593.56H567.48V675.77H590.18V593.56Z" fill="#2f2788" opacity="1" stroke-width="4" stroke="none"></path><path d="M603.07 593.56H590.18V675.77H603.07V593.56Z" fill="#5b382c" opacity="1" stroke-width="4" stroke="none"></path><path d="M590.18 593.56H592.64L598.59 675.77H590.18V593.56Z" fill="#030100" opacity="0.3" stroke-width="4" stroke="none"></path><path d="M408.59 482.76H394.48V564.97H408.59V482.76Z" fill="#f99f81" opacity="1" stroke-width="4" stroke="none"></path><path d="M394.48 482.76H398.28L405.15 564.97H394.48V482.76Z" fill="#030100" opacity="0.3" stroke-width="4" stroke="none"></path><path d="M433.74 482.76H408.59V564.97H433.74V482.76Z" fill="#5b382c" opacity="1" stroke-width="4" stroke="none"></path><path d="M452.76 504.85H433.74V564.97H452.76V504.85Z" fill="#cecece" opacity="1" stroke-width="4" stroke="none"></path><path d="M433.74 504.85H436.32L445.64 564.97H433.74V504.85Z" fill="#030100" opacity="0.3" stroke-width="4" stroke="none"></path><path d="M521.47 482.76H499.39V564.97H521.47V482.76Z" fill="#cecece" opacity="1" stroke-width="4" stroke="none"></path><path d="M539.88 495.64H521.47V564.97H539.88V495.64Z" fill="#cecece" opacity="1" stroke-width="4" stroke="none"></path><path d="M539.88 495.64H521.47V564.97H539.88V495.64Z" fill="#2f2788" opacity="1" stroke-width="4" stroke="none"></path><path d="M521.47 495.64H524.11L532.52 564.97H521.47V495.64Z" fill="#030100" opacity="0.3" stroke-width="4" stroke="none"></path><path d="M603.07 482.76H584.66V564.97H603.07V482.76Z" fill="#f99f81" opacity="1" stroke-width="4" stroke="none"></path><path d="M558.28 495.64H539.88V564.97H558.28V495.64Z" fill="#f99f81" opacity="1" stroke-width="4" stroke="none"></path><path d="M471.17 495.64H452.76V564.97H471.17V495.64Z" fill="#2f2788" opacity="1" stroke-width="4" stroke="none"></path><path d="M499.39 495.64H471.17V564.97H499.39V495.64Z" fill="#5b382c" opacity="1" stroke-width="4" stroke="none"></path><path d="M584.66 504.85H558.28V564.97H584.66V504.85Z" fill="#5b382c" opacity="1" stroke-width="4" stroke="none"></path><path d="M558.28 504.85H560.49L571.47 564.97H558.28V504.85Z" fill="#030100" opacity="0.3" stroke-width="4" stroke="none"></path><path d="M394.48 250V747.55" stroke="#000000" stroke-width="4" stroke-linecap="round" stroke-linejoin="round" opacity="1" fill="none"></path><path d="M603.07 250V747.55" stroke="#000000" stroke-width="4" stroke-linecap="round" stroke-linejoin="round" opacity="1" fill="none"></path><path d="M394.48 342.02H603.07" stroke="#000000" stroke-width="4" stroke-linecap="round" stroke-linejoin="round" opacity="1" fill="none"></path><path d="M394.48 453.25H603.07" stroke="#000000" stroke-width="4" stroke-linecap="round" stroke-linejoin="round" opacity="1" fill="none"></path><path d="M394.48 564.54H603.07" stroke="#000000" stroke-width="4" stroke-linecap="round" stroke-linejoin="round" opacity="1" fill="none"></path><path d="M394.48 675.77H603.07" stroke="#000000" stroke-width="4" stroke-linecap="round" stroke-linejoin="round" opacity="1" fill="none"></path><path d="M572.39 384.85H575.03L585.95 454.17H572.39V384.85Z" fill="#030100" opacity="0.3" stroke-width="4" stroke="none"></path></g></svg>