<svg xmlns="http://www.w3.org/2000/svg" version="1.1" xmlns:xlink="http://www.w3.org/1999/xlink" xmlns:svgjs="http://svgjs.com/svgjs" viewBox="307.76 248 382.48 502"> <g><path d="M509.38 644.77V730.33" stroke="#312b29" stroke-width="4" stroke-linecap="round" stroke-linejoin="round" opacity="1" fill="none"></path><path d="M593.03 629.3C488.37 672.46 368.43 622.42 325.27 517.76 282.1 413.1 332.14 293.16 436.8 250L593.03 629.3Z" stroke="#312b29" stroke-width="4" stroke-linecap="round" stroke-linejoin="round" opacity="1" fill="none"></path><path d="M593.03 629.3C488.37 672.46 368.43 622.42 325.27 517.76 282.1 413.1 332.14 293.16 436.8 250L593.03 629.3Z" fill="#95837d" opacity="0.3" stroke-width="4" stroke="none"></path><path d="M516.06 266.42C529.05 266.42 542.23 267.95 554.26 270.63 575.84 275.4 608.88 303.86 608.88 303.86 608.88 303.86 648.03 324.68 660.83 343.77 679.35 371.47 690.24 404.89 690.24 440.6 690.24 536.86 612.32 614.78 516.06 614.78 424.58 614.78 349.33 543.54 342.26 453.78 341.88 449.2 341.88 445.38 341.88 440.6 341.88 428.38 356.21 408.9 356.21 408.9 356.21 408.9 352.39 379.49 357.93 367.46 385.62 308.06 446.16 266.42 516.06 266.42Z" fill="#f99f81" opacity="1" stroke-width="4" stroke="none"></path><path d="M399.56 491.6C414.08 554.81 433.94 518.53 451.13 539.34 478.82 572.77 505.37 587.66 525.99 584.61 546.62 581.55 510.33 557.1 510.33 517.76 510.33 478.42 498.87 453.21 469.08 448.82 439.29 444.42 430.31 476.13 411.97 466.58 398.41 459.32 436.42 420.36 439.48 385.98 444.25 334.61 361.17 366.5 357.93 367.46 357.93 367.46 357.73 367.46 357.73 367.65 345.32 394.58 339.78 424.18 342.07 453.78 342.07 453.78 342.07 453.78 342.07 453.97 370.53 490.26 392.11 459.13 399.56 491.6Z" fill="#2f2788" opacity="1" stroke-width="4" stroke="none"></path><path d="M554.26 270.63C549.48 272.54 545.47 275.02 541.46 277.88 503.27 304.24 488.75 362.3 510.33 372.04 531.72 381.78 558.65 345.3 576.99 339 608.69 328.3 603.91 356.95 586.15 365.74 568.39 374.52 538.79 374.71 532.87 398.4 526.76 422.84 551.39 429.14 578.7 432.58 606.02 436.02 608.69 527.69 630.27 519.67 651.85 511.65 673.62 454.74 656.24 385.98 650.32 362.68 654.14 350.65 660.64 343.96V343.77C635.81 306.72 597.8 280.56 554.26 270.63Z" fill="#2f2788" opacity="1" stroke-width="4" stroke="none"></path><path d="M469.84 712.57H550.82C570.87 712.57 587.11 728.8 587.11 748.85V750H433.56V748.85C433.56 728.8 449.79 712.57 469.84 712.57Z" fill="#d3cbc9" opacity="1" stroke-width="4" stroke="none"></path></g></svg>