<svg xmlns="http://www.w3.org/2000/svg" version="1.1" xmlns:xlink="http://www.w3.org/1999/xlink" xmlns:svgjs="http://svgjs.com/svgjs" viewBox="281.6 250 436.73 499.92"> <g><path d="M718.33 250H281.6V749.92H718.33V250Z" fill="#f99f81" opacity="1" stroke-width="4" stroke="none"></path><path d="M568.07 610.48C539.99 588.29 523.7 554.45 523.84 518.78V432.27C523.84 385.65 565.12 389.87 582.96 410.93 604.3 436.07 647.13 492.8 638.29 583.37 633.09 637.3 598.26 633.93 568.07 610.48Z" fill="#2f2788" opacity="1" stroke-width="4" stroke="none"></path><path d="M432 610.48C460.08 588.29 476.37 554.45 476.23 518.78V432.27C476.23 385.65 434.95 389.87 417.11 410.93 395.77 436.07 352.94 492.8 361.78 583.37 366.98 637.3 401.81 633.93 432 610.48Z" fill="#2f2788" opacity="1" stroke-width="4" stroke="none"></path><path d="M550.24 509.37L516.54 482.41C509.79 477.07 506 469.21 506 460.78V342.96 333.84C506 330.75 503.48 328.22 500.39 328.22 497.3 328.22 494.77 330.75 494.77 333.84V342.96 460.78C494.77 469.21 490.98 477.07 484.38 482.27L449.27 509.23C446.74 511.05 446.32 514.71 448.29 517.09 450.25 519.62 453.76 520.04 456.15 518.08L491.26 491.11C506.14 478.19 494.63 478.19 509.51 491.11 510.92 491.68 545.46 521.45 546.73 519.34 551.78 519.48 554.45 512.46 550.24 509.37Z" fill="#453abd" opacity="1" stroke-width="4" stroke="none"></path><path d="M455.31 693.47H545.18" stroke="#453abd" stroke-width="4" stroke-linecap="round" stroke-linejoin="round" opacity="1" fill="none"></path></g></svg>