<svg xmlns="http://www.w3.org/2000/svg" version="1.1" xmlns:xlink="http://www.w3.org/1999/xlink" xmlns:svgjs="http://svgjs.com/svgjs" viewBox="248 314.9 502 371.9"> <g><path d="M386.11 684.8V567.73C386.11 538.95 409.51 515.51 438.33 515.51H697.78C726.56 515.51 750 538.9 750 567.73V684.8H386.11Z" fill="#f99f81" opacity="1" stroke-width="4" stroke="none"></path><path d="M250 684.8V473.02C250 444.24 273.39 420.8 302.22 420.8H599.96C628.74 420.8 652.18 444.19 652.18 473.02V684.8H250Z" fill="#f99f81" opacity="1" stroke-width="4" stroke="none"></path><path d="M695.09 684.8V602.72C695.09 579.17 675.99 559.55 652.44 559.55H392.32" stroke="#3b3939" stroke-width="4" stroke-linecap="round" opacity="1" fill="none"></path><path d="M652.22 515.3V559.04" stroke="#3b3939" stroke-width="4" stroke-linecap="round" opacity="1" fill="none"></path><path d="M443.15 448.75C443.15 448.75 474.82 465.51 495.52 468.67 524.71 473.17 564.56 452.83 564.56 452.83L557.42 433.38C556.39 430.58 553.7 428.77 550.8 428.87L508.77 430.17 470.73 407.03 443.15 448.75Z" fill="#875446" opacity="1" stroke-width="4" stroke="none"></path><path d="M619.48 493.04L580.8 547.21C581.21 548.73 582.27 548.38 582.13 554.15 585.42 556.6 588.27 558.62 591.17 560.69L637.74 497.76C635.26 495.95 634.06 495.38 632.85 494.72 631.58 494.13 630.61 493.92 628.75 493.49 627.44 493.24 626.82 493.01 625.56 492.73 624.42 492.51 623.34 492.69 621.85 492.8Z" fill="#ffffff" opacity="1" stroke-width="4" stroke="none"></path><path d="M544.02 517.27L546.35 521.93C550.43 526.53 554.94 530.98 559.75 535.44 562.7 538.13 565.7 540.82 568.81 543.51 570.1 544.54 571.34 545.63 572.64 546.67 575.74 549.2 579 551.79 582.37 554.33L623.71 499.04C616.77 496.55 607.25 500.86 591.11 489.79 590.23 489.11 589.35 488.44 588.42 487.61 588.37 487.61 588.37 487.56 588.32 487.56 586.97 486.32 583.82 482.49 579.83 477.37L575.9 472.86 544.02 517.27Z" fill="#875446" opacity="1" stroke-width="4" stroke="none"></path><path d="M606.04 522.68L628.76 493.53C618.84 489.82 610 498.69 598.46 494.03 598.2 497.14 598.31 500.4 598.83 503.66 599.81 510.8 602.5 517.17 605.14 521.03Z" fill="#ffffff" opacity="1" stroke-width="4" stroke="none"></path><path d="M390.41 559.24C435.59 559.24 510.74 470.22 510.74 470.22 517.16 485.08 526.42 499.72 546.35 521.82L579.78 477.42C575.74 472.19 570.72 465.62 565.7 459.1 547.02 434.88 535.94 417.02 515.97 410.24 490.55 401.65 435.59 455.16 435.59 455.16L420.79 429.18 360.81 485.23C360.81 485.23 328.05 559.29 390.41 559.24Z" fill="#ff8961" opacity="1" stroke-width="4" stroke="none"></path><path d="M390.41 559.29C435.59 559.29 510.74 470.28 510.74 470.28 510.74 470.28 507.38 463.08 505.62 456.66 505.62 456.66 447.18 509.61 392.12 509.61 356.46 509.56 390.41 559.29 390.41 559.29Z" fill="#d2562c" opacity="0.3" stroke-width="4" stroke="none"></path><path d="M546.29 521.88L579.78 477.47" stroke="#d2562c" stroke-width="4" stroke-linecap="round" opacity="1" fill="none"></path><path d="M440.15 357.71C440.15 357.71 444.03 355.8 443.61 353.73 443.3 352.22 439.27 351.19 439.27 351.19 438.7 343.79 439.58 332.3 433.99 324.9 428.4 317.55 409.92 314.03 395.69 320.24 383.01 325.73 382.39 339.44 382.39 351.19V388.25L383.63 405.53 419.44 411.12V379.6C419.44 379.6 430.31 382.55 436.11 377.17 441.6 372.15 441.08 364.39 440.15 357.71Z" fill="#875446" opacity="1" stroke-width="4" stroke="none"></path><path d="M408.63 375.1L419.39 384.88V379.6C419.44 379.6 414.22 378.31 408.63 375.1Z" fill="#2a2422" opacity="0.3" stroke-width="4" stroke="none"></path><path d="M434.25 323.91C428.66 316.51 409.56 311.49 395.33 317.7 382.65 323.19 382.34 339.29 382.34 351.03V371.58C387.3 371.22 395.79 369.87 399.16 366.2 399.16 366.2 386.68 353.98 394.39 346.22 401.8 340.01 411.42 350.52 411.42 350.52 411.42 350.52 416.8 346.01 415.51 340.63 427.16 345.29 428.66 334.73 428.66 334.73 433.94 339.6 437.79 339.45 438.39 337.23 438.39 333.59 437.35 327.95 434.25 323.91Z" fill="#222222" opacity="1" stroke-width="4" stroke="none"></path><path d="M401.28 354.71L405.42 358.02" stroke="#2a2422" stroke-width="4" stroke-linecap="round" opacity="1" fill="none"></path><path d="M419.44 379.57C414.27 378.28 411.37 376 411.37 376" stroke="#2a2422" stroke-width="4" stroke-linecap="round" opacity="1" fill="none"></path><path d="M429.48 360.92C430.36 363.61 432.8 363.92 434.19 363.61" stroke="#2a2422" stroke-width="4" stroke-linecap="round" opacity="1" fill="none"></path><path d="M419.44 386.02C419.44 386.02 419.19 400.56 404.59 400.56 390.57 400.56 382.39 385.97 382.39 385.97 374.16 388.14 366.4 391.97 359.56 397.04V397.2C352.47 402.37 339.07 416.71 328.19 435.99L357.86 449.9 356.2 494.08 423.12 496.21 443.2 448.75 462.66 432.18 471.15 407.24C459.24 400.1 436.26 387.26 419.44 386.02Z" fill="#2f2788" opacity="1" stroke-width="4" stroke="none"></path><path d="M374.94 443.67L355.79 481.2 385.29 487.51 378.61 446.37 374.94 443.67Z" fill="#000000" opacity="0.3" stroke-width="4" stroke="none"></path><path d="M430.36 352.43C431.34 352.43 432.12 351.64 432.12 350.67 432.12 349.7 431.34 348.91 430.36 348.91 429.39 348.91 428.6 349.7 428.6 350.67 428.6 351.64 429.39 352.43 430.36 352.43Z" fill="#222222" opacity="1" stroke-width="4" stroke="none"></path><path d="M410.08 674.29H485.64C479.89 664.77 467.16 662.29 467.06 642.98 467.06 641.89 467.06 640.81 467.16 639.57 467.21 639.1 467.27 638.58 467.32 638.06 467.73 634.8 468.61 630.71 470.06 626.06L471.35 618.81 417.48 617.98 414.79 626.06C413.65 631.91 412.72 637.96 411.99 644.27 411.58 648.42 411.11 652.66 410.8 657.01 410.7 658.61 410.59 660.22 410.49 661.87 410.28 665.91 410.18 670.05 410.08 674.29Z" fill="#875446" opacity="1" stroke-width="4" stroke="none"></path><path d="M450.19 674.67H485.88C481.14 666.79 472.29 663.63 468.71 653.12 466.54 654.42 464.42 655.87 462.4 657.58 456.66 662.34 452.52 668.24 450.19 674.67Z" fill="#ffffff" opacity="1" stroke-width="4" stroke="none"></path><path d="M391.91 560.33H436.99C427.47 579.17 419.5 601.11 414.73 626.01H470.06C478.86 597.18 503.8 545.89 486.05 524.77 464.21 498.84 393.2 490.93 393.2 490.93L358.94 488.75C358.94 488.75 352.84 499.21 349.01 515.82 343.78 538.7 357.29 560.33 391.91 560.33Z" fill="#ff8961" opacity="1" stroke-width="4" stroke="none"></path><path d="M470.06 512.46C440.82 496.36 393.2 491.03 393.2 491.03" stroke="#d2562c" stroke-width="4" stroke-linecap="round" opacity="1" fill="none"></path><path d="M401.07 560.33C386.22 560.33 437.09 560.33 437.09 560.33L446.15 543.35C439.11 541.23 420.63 560.33 401.07 560.33Z" fill="#d2562c" opacity="0.3" stroke-width="4" stroke="none"></path><path d="M443.92 547.44C441.75 551.53 437.04 560.33 437.04 560.33" stroke="#d2562c" stroke-width="4" stroke-linecap="round" opacity="1" fill="none"></path><path d="M438.23 485.91C438.54 483.53 423.79 478.45 408.58 474.93 392.69 471.21 363.03 467.33 363.03 467.33 363.03 467.33 365.88 462.1 369.14 455.16L328.51 435.45C323.28 444.55 316.76 456.72 313.87 467.38 305.12 500.09 328.46 501.85 340.21 502.42 351.9 502.98 382.91 500.66 382.91 500.66 382.91 500.66 408.58 508.26 416.18 508.26 423.79 508.26 423.22 504.74 423.22 504.74 423.22 504.74 431.4 505.31 430.83 500.03 430.83 500.03 440.82 498.43 435.54 494.19 432.59 491.86 417.43 486.01 416.24 485.39 422.7 485.96 437.77 490.46 438.23 485.91Z" fill="#875446" opacity="1" stroke-width="4" stroke="none"></path><path d="M362.48 467.26L347.56 464.78" stroke="#2a2422" stroke-width="4" stroke-linecap="round" opacity="1" fill="none"></path><path d="M423.27 504.64L404.59 498.22" stroke="#2a2422" stroke-width="4" stroke-linecap="round" opacity="1" fill="none"></path><path d="M430.88 499.36L408.11 490.05" stroke="#2a2422" stroke-width="4" stroke-linecap="round" opacity="1" fill="none"></path><path d="M417.34 485.69L410.97 483.36" stroke="#2a2422" stroke-width="4" stroke-linecap="round" opacity="1" fill="none"></path><path d="M549.87 428.15C539.51 428.15 530.25 429.39 529.27 432.7 528.7 436.58 536.98 437.46 541.38 438.5 541.38 438.5 540.08 441.4 529.94 449.01 519.8 456.61 526.94 459.93 526.94 459.93 524.76 467.27 532.01 466.08 532.01 466.08 531.03 473.69 546.29 469.29 549.71 466.39 549.71 466.39 545.1 477 548.78 477.21 553.18 477.52 571.24 457.6 569.12 442.9 567.67 432.65 560.22 428.15 549.87 428.15Z" fill="#875446" opacity="1" stroke-width="4" stroke="none"></path><path d="M449.36 433.06L443.2 448.75" stroke="#000000" stroke-width="4" stroke-linecap="round" opacity="1" fill="none"></path><path d="M507.23 458.68C509.24 466.76 510.74 470.28 510.74 470.28" stroke="#d2562c" stroke-width="4" stroke-linecap="round" opacity="1" fill="none"></path><path d="M559.6 457.8C559.6 457.8 555.2 462.62 548.74 467.12" stroke="#2a2422" stroke-width="4" stroke-linecap="round" opacity="1" fill="none"></path><path d="M555.45 451.64C555.45 451.64 541.48 463.55 532.68 465.97" stroke="#2a2422" stroke-width="4" stroke-linecap="round" opacity="1" fill="none"></path><path d="M551.42 443.83C551.42 443.83 537.55 455.22 526.94 459.82" stroke="#2a2422" stroke-width="4" stroke-linecap="round" opacity="1" fill="none"></path><path d="M369.18 455.09L374.94 444.61" stroke="#000000" stroke-width="4" stroke-linecap="round" opacity="1" fill="none"></path><path d="M414.79 626.01H470.11" stroke="#d2562c" stroke-width="4" stroke-linecap="round" opacity="1" fill="none"></path><path d="M485.37 674.17H420.99C418.51 674.15 411.16 674.31 410.07 674.31 409.94 675.15 410.03 676.95 410.03 677.43 410.04 677.78 410.05 681.54 410.48 685.09H488.78C488.78 682.14 488.37 679.71 487.59 677.64 487.18 676.45 486.55 675.21 485.39 674.17Z" fill="#ffffff" opacity="1" stroke-width="4" stroke="none"></path><path d="M250 684.8V515.56H340.16C352.68 515.56 364.79 520.06 374.26 528.24 383.73 536.42 389.94 547.7 391.81 560.07 392.17 562.61 392.38 565.19 392.38 567.73V684.8H250Z" fill="#f99f81" opacity="1" stroke-width="4" stroke="none"></path><path d="M392.84 684.8V567.73C392.84 565.14 392.64 562.61 392.27 560.07" stroke="#3b3939" stroke-width="4" stroke-linecap="round" opacity="1" fill="none"></path><path d="M348.95 515.56H250" stroke="#3b3939" stroke-width="4" stroke-linecap="round" opacity="1" fill="none"></path></g></svg>