<svg xmlns="http://www.w3.org/2000/svg" version="1.1" xmlns:xlink="http://www.w3.org/1999/xlink" xmlns:svgjs="http://svgjs.com/svgjs" viewBox="250 329.69 498.68 341.81"> <g><path d="M295.51 671.5C289.04 671.49 282.83 668.91 278.25 664.33 273.68 659.76 271.1 653.55 271.09 647.08V381.29C271.08 374.8 273.64 368.56 278.22 363.96 282.8 359.35 289.02 356.75 295.51 356.72H724.26C730.75 356.73 736.95 359.3 741.53 363.88 746.1 368.46 748.68 374.66 748.68 381.14V647.08C748.68 653.55 746.1 659.76 741.53 664.33 736.95 668.91 730.75 671.49 724.26 671.5H295.51Z" fill="#272727" opacity="0.2" stroke-width="4" stroke="none"></path><path d="M274.42 644.46C267.95 644.46 261.74 641.88 257.16 637.3 252.58 632.73 250.01 626.52 250 620.04V354.26C249.99 347.77 252.55 341.53 257.13 336.93 261.71 332.32 267.92 329.72 274.42 329.69H703.17C709.65 329.69 715.85 332.27 720.43 336.85 725.01 341.43 727.59 347.63 727.59 354.11V620.04C727.59 626.52 725.01 632.73 720.43 637.3 715.85 641.88 709.65 644.46 703.17 644.46H274.42Z" fill="#f99f81" opacity="1" stroke-width="4" stroke="none"></path><path d="M250.04 456.34L250 389.89 727.7 389.84 727.75 456.34H250.04Z" fill="#272727" opacity="1" stroke-width="4" stroke="none"></path><path d="M334.89 594.62C328.27 594.59 321.93 591.94 317.27 587.24 312.6 582.55 309.99 576.19 310 569.58 309.95 566.31 310.56 563.06 311.78 560.03 313 557 314.82 554.25 317.12 551.93 319.44 549.57 322.21 547.71 325.26 546.44 328.31 545.17 331.59 544.52 334.89 544.53H396.45C403.07 544.57 409.4 547.23 414.06 551.92 418.71 556.61 421.34 562.96 421.34 569.58 421.34 576.19 418.71 582.54 414.06 587.23 409.4 591.92 403.07 594.58 396.45 594.62L334.89 594.62Z" fill="#ddc9c2" opacity="1" stroke-width="4" stroke="none"></path><path d="M630.04 594.31C622.56 594.31 615.25 592.09 609.01 587.93 602.79 583.77 597.93 577.85 595.07 570.94 592.2 564.02 591.45 556.41 592.92 549.06 594.37 541.72 597.98 534.98 603.28 529.68 608.57 524.39 615.32 520.78 622.67 519.32 630.01 517.86 637.62 518.61 644.53 521.48 651.45 524.34 657.35 529.19 661.53 535.42 665.68 541.64 667.9 548.96 667.9 556.45 667.89 566.49 663.9 576.11 656.81 583.21 649.7 590.3 640.07 594.3 630.04 594.31V594.31Z" fill="#2f2788" opacity="1" stroke-width="4" stroke="none"></path><path d="M581.14 594.31C573.65 594.31 566.34 592.09 560.1 587.93 553.89 583.77 549.03 577.85 546.17 570.94 543.29 564.02 542.54 556.41 544.01 549.07 545.46 541.72 549.07 534.98 554.37 529.68 559.67 524.39 566.4 520.78 573.75 519.32 581.09 517.86 588.71 518.61 595.62 521.48 602.54 524.34 608.45 529.19 612.62 535.42 616.78 541.64 619 548.96 619 556.45 618.98 566.49 615 576.11 607.89 583.21 600.79 590.3 591.17 594.3 581.14 594.31V594.31Z" fill="#2f2788" opacity="1" stroke-width="4" stroke="none"></path></g></svg>