<svg width="79" height="81" viewBox="0 0 79 81" fill="none" xmlns="http://www.w3.org/2000/svg">
<path fill-rule="evenodd" clip-rule="evenodd" d="M47.6476 66.1058C39.0179 66.1333 31.2203 68.2166 22.913 70.0333C21.2907 70.3883 20.2671 71.9874 20.619 73.6054C20.9711 75.2243 22.5765 76.2483 24.1991 75.8943C32.0763 74.1714 39.4727 72.1325 47.6694 72.1047C49.3274 72.0994 50.6707 70.7493 50.6601 69.0948C50.6594 67.4387 49.3053 66.0996 47.6476 66.1058Z" fill="#F59F81"/>
<path fill-rule="evenodd" clip-rule="evenodd" d="M59.1693 45.1871C43.3863 34.7121 24.2476 25.9066 5.91311 20.9881C4.31192 20.5597 2.66274 21.5099 2.2368 23.1085C1.81087 24.707 2.75769 26.3549 4.35888 26.7832C22.0862 31.5399 40.5963 40.0558 55.8502 50.1865C57.2326 51.1012 59.0967 50.7241 60.0102 49.3451C60.9238 47.9661 60.5516 46.1018 59.1693 45.1871Z" fill="#F59F81"/>
<path fill-rule="evenodd" clip-rule="evenodd" d="M71.8577 38.3732C70.8113 25.4546 64.1295 13.536 56.3777 3.48481C55.3606 2.17496 53.4758 1.93169 52.171 2.9403C50.8568 3.95229 50.6157 5.83765 51.6231 7.14992C58.6872 16.3028 64.9226 27.0918 65.8773 38.8574C66.0106 40.5081 67.4614 41.7387 69.108 41.6054C70.7549 41.473 71.9908 40.023 71.8577 38.3732Z" fill="#F59F81"/>
</svg>
