<?xml version="1.0" standalone="no"?>
<!DOCTYPE svg PUBLIC "-//W3C//DTD SVG 20010904//EN"
 "http://www.w3.org/TR/2001/REC-SVG-20010904/DTD/svg10.dtd">
<svg version="1.0" xmlns="http://www.w3.org/2000/svg"
 width="1016.000000pt" height="1016.000000pt" viewBox="0 0 1016.000000 1016.000000"
 preserveAspectRatio="xMidYMid meet">
<metadata>
Created by potrace 1.14, written by Peter Selinger 2001-2017
</metadata>
<g transform="translate(0.000000,1016.000000) scale(0.100000,-0.100000)"
fill="#000000" stroke="none">
<path d="M3515 9024 c-235 -50 -419 -222 -491 -460 -17 -56 -19 -155 -22
-1759 -2 -1260 0 -1719 9 -1775 39 -254 211 -449 464 -527 57 -17 120 -18
1140 -18 1209 0 1118 -5 1270 73 63 32 121 86 616 581 494 495 549 553 582
616 77 152 72 48 72 1470 0 1198 -1 1274 -18 1334 -64 225 -226 389 -452 457
-57 18 -142 19 -1580 21 -1307 1 -1530 -1 -1590 -13z m3005 -1796 l0 -1173
-467 -467 -468 -468 -972 0 -973 0 0 1640 0 1640 1440 0 1440 0 0 -1172z"/>
<path d="M5845 7791 c-51 -13 -114 -50 -153 -89 -20 -21 -237 -266 -482 -545
-244 -279 -447 -507 -450 -506 -3 0 -59 63 -125 141 -164 192 -195 222 -256
254 -47 24 -66 28 -139 28 -70 0 -93 -4 -130 -23 -80 -42 -118 -79 -152 -149
-29 -58 -33 -77 -33 -142 1 -119 16 -143 284 -451 254 -293 296 -329 421 -366
127 -38 295 -10 403 67 39 28 224 231 589 647 293 333 546 624 561 646 62 92
71 207 24 310 -34 73 -67 109 -136 146 -65 34 -164 49 -226 32z"/>
<path d="M1415 6994 c-11 -2 -45 -9 -75 -15 -30 -6 -93 -29 -140 -51 -155 -74
-282 -228 -330 -398 -28 -103 -28 -121 6 -4012 l6 -756 -318 -4 c-302 -3 -321
-4 -366 -25 -66 -30 -133 -96 -165 -162 -39 -80 -39 -182 0 -262 32 -66 99
-132 165 -162 l47 -22 4835 0 4835 0 56 28 c67 32 132 99 162 165 29 65 29
179 0 244 -30 66 -95 133 -162 165 l-56 28 -317 3 c-317 3 -318 4 -322 25 -3
12 -7 454 -10 982 -19 3009 -26 3648 -42 3725 -55 261 -266 459 -532 500 -43
7 -190 10 -379 8 l-308 -3 -56 -28 c-67 -32 -132 -99 -162 -165 -29 -65 -29
-179 0 -244 30 -66 95 -133 162 -165 l56 -28 300 -5 300 -5 2 -155 c1 -85 7
-843 12 -1685 6 -841 14 -1806 18 -2143 l6 -612 -3564 2 -3564 3 -2 320 c-1
176 -9 1164 -18 2195 -8 1031 -15 1921 -15 1977 l0 102 338 3 337 3 56 28 c67
32 132 99 162 165 15 34 21 67 21 122 0 55 -6 88 -21 122 -30 66 -95 133 -162
165 l-56 28 -360 2 c-198 1 -369 -1 -380 -3z"/>
</g>
</svg>
